<svg width="127" height="76" viewBox="0 0 127 76" fill="none" xmlns="http://www.w3.org/2000/svg">
<g clip-path="url(#clip0_58_4)">
<path d="M9.50308 60.0448L14.2051 50.3383H17.7546L9.36478 67.1628L0.560059 50.3383H4.52449L9.50308 60.0448Z" fill="#005778"/>
<path d="M27.712 66.8851L26.6517 64.6665H18.6767L17.6165 66.8851H14.0669L22.7794 50.0606L31.492 66.8851H27.712ZM22.5951 56.3929L20.1058 61.5235H25.1305L22.5951 56.3929Z" fill="#005778"/>
<path d="M32.8757 50.3383H36.3331V63.7425H42.9712V66.8393H32.9218V50.3383H32.8757Z" fill="#005778"/>
<path d="M51.498 67.1628C50.576 67.1628 49.7002 67.0242 48.9165 66.7931C48.1328 66.562 47.4875 66.1922 46.8882 65.6838C46.2889 65.1753 45.874 64.6669 45.4591 63.9736C45.0443 63.2803 44.8138 62.5869 44.6294 61.8012C44.445 61.0154 44.3528 60.1372 44.3528 59.2128V50.3383H47.8101V59.8137C47.8101 61.1079 48.1328 62.1247 48.7321 62.818C49.3314 63.5114 50.2994 63.8811 51.498 63.8811C52.7426 63.8811 53.6646 63.5114 54.2639 62.818C54.8631 62.1247 55.1397 61.1079 55.1397 59.8137V50.3383H58.5971V59.4901C58.5971 61.8936 57.9517 63.7425 56.7071 65.1291C55.4624 66.5157 53.7107 67.1628 51.498 67.1628Z" fill="#005778"/>
<path d="M73.3032 59.9057V50.3379H76.7145V67.1625L65.0056 57.3636V66.8851H61.5482V50.0606L73.3032 59.9057Z" fill="#F58220"/>
<path d="M91.0508 66.4693C89.9905 66.9315 88.8842 67.1626 87.7317 67.1626C86.5793 67.1626 85.4729 66.9315 84.4127 66.4693C83.3524 66.0071 82.4305 65.4062 81.6929 64.6204C80.9553 63.8347 80.31 62.9565 79.8951 61.8934C79.4802 60.8303 79.2036 59.721 79.2036 58.5654C79.2036 57.0401 79.5724 55.6073 80.3561 54.2668C81.1397 52.9264 82.1539 51.9095 83.4446 51.17C84.7354 50.4305 86.1644 50.0145 87.7317 50.0145C88.8842 50.0145 89.9905 50.2456 91.0508 50.7078C92.111 51.17 93.033 51.7709 93.7706 52.5104C94.5081 53.25 95.1535 54.1744 95.5684 55.2375C95.9833 56.3006 96.2598 57.4099 96.2598 58.5654C96.2598 59.721 96.0294 60.8303 95.5684 61.8934C95.1074 62.9565 94.5081 63.8809 93.7706 64.6204C93.033 65.36 92.0649 66.0071 91.0508 66.4693ZM87.6856 53.3424C86.3027 53.3424 85.1042 53.8508 84.1361 54.8677C83.168 55.8846 82.7071 57.1326 82.7071 58.6116C82.7071 60.0907 83.168 61.3387 84.1361 62.3556C85.1042 63.3724 86.3027 63.8809 87.6856 63.8809C88.6076 63.8809 89.4374 63.6498 90.221 63.1876C91.0047 62.7253 91.604 62.0783 92.0188 61.2925C92.4337 60.5067 92.6642 59.5823 92.6642 58.6116C92.6642 57.1788 92.1571 55.9308 91.1891 54.9139C90.221 53.8971 89.0686 53.3424 87.6856 53.3424Z" fill="#F58220"/>
<path d="M104.235 60.0448L108.937 50.3383H112.487L104.097 67.1628L95.2922 50.3383H99.2567L104.235 60.0448Z" fill="#F58220"/>
<path d="M122.444 66.8851L121.384 64.6665H113.409L112.349 66.8851H108.799L117.512 50.0606L126.224 66.8851H122.444ZM117.327 56.3929L114.838 61.5235H119.863L117.327 56.3929Z" fill="#F58220"/>
<path d="M68.7391 8L79.019 8.18488L54.8635 41.7879C53.8033 43.267 51.6367 43.267 50.5764 41.7879L47.5339 37.5355L68.7391 8Z" fill="#F58220"/>
<path d="M89.3453 8L99.6252 8.18488L76.4378 41.1407C75.1471 42.9895 72.4273 43.1282 70.9522 41.3718L68.0941 38.0438L89.3453 8Z" fill="url(#paint0_linear_58_4)"/>
<path d="M36.0545 43.36L25.7747 43.1751L49.6534 9.98819C50.8981 8.23178 53.4796 8.09311 54.9547 9.66463L57.9972 12.9464L36.0545 43.36Z" fill="url(#paint1_linear_58_4)"/>
<path d="M61.7319 17.06L54.8172 9.61841C53.3882 8.04689 50.8528 8.23178 49.6081 9.94197L46.7961 13.8246L56.2462 24.6866L61.7319 17.06Z" fill="url(#paint2_linear_58_4)"/>
<path d="M68.1391 23.9929L62.5613 31.8043L71.0894 41.557C72.5185 43.221 75.1 43.0823 76.3446 41.2797L79.7098 36.5189L68.1391 23.9929Z" fill="url(#paint3_linear_58_4)"/>
<path d="M49.4241 25.7025L44.1689 32.913L47.5341 37.5813C50.1156 41.1404 55.3708 41.1404 57.9523 37.5813L49.4241 25.7025Z" fill="#F58220"/>
<path d="M43.5685 17.5216L36.6999 8L26.42 8.18488L38.3134 24.7783L43.5685 17.5216Z" fill="#F58220"/>
</g>
<defs>
<linearGradient id="paint0_linear_58_4" x1="68.1275" y1="25.3074" x2="99.6412" y2="25.3074" gradientUnits="userSpaceOnUse">
<stop stop-color="#2484C6"/>
<stop offset="0.6594" stop-color="#005778"/>
<stop offset="1" stop-color="#165394" stop-opacity="0.7"/>
</linearGradient>
<linearGradient id="paint1_linear_58_4" x1="25.7586" y1="25.9783" x2="57.9427" y2="25.9783" gradientUnits="userSpaceOnUse">
<stop stop-color="#2484C6"/>
<stop offset="0.6594" stop-color="#005778"/>
<stop offset="1" stop-color="#165394" stop-opacity="0.7"/>
</linearGradient>
<linearGradient id="paint2_linear_58_4" x1="46.8504" y1="16.6129" x2="61.7439" y2="16.6129" gradientUnits="userSpaceOnUse">
<stop stop-color="#2484C6"/>
<stop offset="0.6594" stop-color="#005778"/>
<stop offset="1" stop-color="#165394" stop-opacity="0.7"/>
</linearGradient>
<linearGradient id="paint3_linear_58_4" x1="62.545" y1="33.3556" x2="79.6934" y2="33.3556" gradientUnits="userSpaceOnUse">
<stop stop-color="#2484C6"/>
<stop offset="0.6594" stop-color="#005778"/>
<stop offset="1" stop-color="#165394" stop-opacity="0.7"/>
</linearGradient>
<clipPath id="clip0_58_4">
<rect width="125.664" height="75.1096" fill="white" transform="translate(0.560059)"/>
</clipPath>
</defs>
</svg>
