<svg width="12" height="14" viewBox="0 0 12 14" fill="none" xmlns="http://www.w3.org/2000/svg">
<path d="M9.33335 0.333008H2.66669C1.53335 0.333008 0.666687 1.19967 0.666687 2.33301V6.33301H6.40002L4.86669 4.79967C4.60002 4.53301 4.60002 4.13301 4.86669 3.86634C5.13335 3.59967 5.53335 3.59967 5.80002 3.86634L8.46669 6.53301C8.73335 6.79967 8.73335 7.19967 8.46669 7.46634L5.80002 10.133C5.53335 10.3997 5.13335 10.3997 4.86669 10.133C4.60002 9.86634 4.60002 9.46634 4.86669 9.19967L6.40002 7.66634H0.666687V11.6663C0.666687 12.7997 1.53335 13.6663 2.66669 13.6663H9.33335C10.4667 13.6663 11.3334 12.7997 11.3334 11.6663V2.33301C11.3334 1.19967 10.4667 0.333008 9.33335 0.333008Z" fill="#005778"/>
</svg>
