<svg width="16" height="16" viewBox="0 0 16 16" fill="none" xmlns="http://www.w3.org/2000/svg">
<path d="M6.09095 14.3636C6.44241 14.3636 6.72732 14.0787 6.72732 13.7273C6.72732 13.3758 6.44241 13.0909 6.09095 13.0909C5.7395 13.0909 5.45459 13.3758 5.45459 13.7273C5.45459 14.0787 5.7395 14.3636 6.09095 14.3636Z" stroke="#005778" stroke-width="1.5" stroke-linecap="round" stroke-linejoin="round"/>
<path d="M13.091 14.3636C13.4424 14.3636 13.7273 14.0787 13.7273 13.7273C13.7273 13.3758 13.4424 13.0909 13.091 13.0909C12.7395 13.0909 12.4546 13.3758 12.4546 13.7273C12.4546 14.0787 12.7395 14.3636 13.091 14.3636Z" stroke="#005778" stroke-width="1.5" stroke-linecap="round" stroke-linejoin="round"/>
<path d="M1 1H3.54545L5.25091 9.52091C5.3091 9.81389 5.46849 10.0771 5.70117 10.2644C5.93384 10.4517 6.22499 10.5512 6.52364 10.5455H12.7091C13.0077 10.5512 13.2989 10.4517 13.5316 10.2644C13.7642 10.0771 13.9236 9.81389 13.9818 9.52091L15 4.18182H4.18182" stroke="#005778" stroke-width="1.5" stroke-linecap="round" stroke-linejoin="round"/>
</svg>
