<svg width="24" height="26" viewBox="0 0 24 26" fill="none" xmlns="http://www.w3.org/2000/svg">
<path d="M23.9454 5.12995C23.8844 4.99472 23.772 4.88939 23.6331 4.83718L21.8459 4.1624C21.2576 3.64655 19.4619 2.10198 18.6896 1.70869C17.8982 1.36556 17.073 1.10568 16.2276 0.933649C16.1885 0.855916 16.131 0.788991 16.0604 0.738393C15.9406 0.651227 15.7911 0.615119 15.6449 0.638122L2.43428 2.75718C2.28617 2.77788 2.15254 2.857 2.06354 2.97705C1.97431 3.0971 1.93728 3.24797 1.96028 3.39562L3.07545 10.2882H3.07568C3.11983 10.561 3.35695 10.7601 3.63316 10.7567C3.66375 10.7595 3.69457 10.7595 3.72516 10.7567L11.9366 9.40438H11.9368C12.2409 9.35424 12.4469 9.06722 12.3968 8.76293C12.3466 8.45888 12.0596 8.25282 11.7556 8.30296L4.08462 9.55754L3.15614 3.75803L15.2657 1.80618L15.9017 5.86031L14.6972 5.89665H14.697C14.6448 5.89918 14.5933 5.90861 14.5436 5.92448L12.8261 6.48219C12.5929 6.55832 12.4367 6.77772 12.4413 7.02312C12.4323 7.47458 12.4756 7.92557 12.5696 8.36714C12.7299 8.68773 12.9296 8.98739 13.1635 9.25922C13.298 9.42343 13.5144 9.49703 13.7212 9.44896L15.9267 8.92759L17.357 9.0642L19.2753 10.1794C19.3303 10.2359 19.397 10.2796 19.4706 10.3077L19.5543 10.3383C19.6063 10.3673 19.6628 10.387 19.7215 10.3969L21.2856 10.9908C21.3481 11.014 21.4141 11.0264 21.4808 11.0271C21.7253 11.0411 21.9505 10.8942 22.0358 10.6646L23.9681 5.55645H23.9679C24.0173 5.41685 24.0095 5.26345 23.9455 5.12983L23.9454 5.12995ZM17.5938 7.96288L15.9515 7.80948C15.8924 7.79982 15.8321 7.79982 15.773 7.80948L13.8212 8.26945C13.7513 8.18068 13.6871 8.08754 13.6289 7.99071C13.5986 7.79683 13.5808 7.60135 13.5758 7.40517L14.8193 7.00086L16.5759 6.9452H16.6652L16.7208 6.93117H16.721C16.7385 6.9268 16.7553 6.92037 16.7712 6.91163L16.8213 6.88932L16.8687 6.86149L16.9105 6.82814L16.9496 6.79479L16.986 6.75293L17.0193 6.71108L17.0444 6.6637L17.0695 6.61908L17.103 6.51329V6.51283C17.1044 6.49535 17.1044 6.47764 17.103 6.45993C17.1044 6.4413 17.1044 6.42268 17.103 6.40428V6.37898C17.1047 6.36702 17.1047 6.35483 17.103 6.34287V6.30952L16.4338 2.12704C17.0306 2.26273 17.6134 2.45522 18.1736 2.70131C18.7314 2.98005 20.1421 4.16791 20.9369 4.85375L19.3979 8.94427L17.8197 8.03535C17.75 7.99625 17.6732 7.97164 17.5938 7.9629L17.5938 7.96288ZM21.1795 9.74736L20.3987 9.45183L21.9378 5.38939L22.7186 5.68492L21.1795 9.74736Z" fill="#4D4D4D"/>
<path d="M11.141 3.98328C10.5649 3.53159 9.80544 3.38622 9.10311 3.59369C8.40096 3.8009 7.84211 4.33517 7.6036 5.02744C7.36488 5.71993 7.47596 6.48485 7.90166 7.08073C8.32714 7.67662 9.01454 8.03011 9.74707 8.02917C9.84021 8.02917 9.93336 8.02365 10.0258 8.01238C10.6208 7.9381 11.1619 7.6306 11.5306 7.15774C11.8993 6.68487 12.0653 6.08507 11.9922 5.49013C11.9193 4.89495 11.6132 4.35312 11.141 3.98326L11.141 3.98328ZM10.6474 6.47309L10.6477 6.47332C10.4106 6.77275 10.0398 6.9342 9.6592 6.90431C9.27835 6.87418 8.93774 6.65662 8.75028 6.32383C8.56307 5.99081 8.55387 5.5867 8.7259 5.24569C8.89793 4.90462 9.22865 4.67188 9.60745 4.62472H9.74705C10.0352 4.62564 10.3124 4.73489 10.5239 4.93083C10.7353 5.12655 10.8652 5.39471 10.8882 5.68197C10.9112 5.96945 10.8252 6.25463 10.6477 6.48163L10.6474 6.47309Z" fill="#4D4D4D"/>
<path d="M17.5988 19.9101C17.4254 19.6893 17.1754 19.5421 16.8985 19.4977C16.6214 19.4533 16.3378 19.515 16.1044 19.6702L15.0058 20.2279L12.3821 20.833H12.3819C12.349 20.6304 12.2881 20.4333 12.2007 20.2475C11.9661 19.9321 11.6894 19.6509 11.3782 19.411C11.2409 19.2951 11.056 19.2525 10.8819 19.2965L8.1382 20.0018L6.24775 19.9767L3.45944 18.9004L3.45967 18.4434C3.45967 18.2956 3.4008 18.1537 3.29616 18.049C3.19175 17.9444 3.04984 17.8857 2.90196 17.8857H0.565297C0.257347 17.8857 0.0078125 18.1353 0.0078125 18.4435V24.9481C0.0078125 25.0959 0.0664586 25.2378 0.171099 25.3425C0.27551 25.4469 0.417413 25.5058 0.565291 25.5058H2.88789C3.03577 25.5058 3.17767 25.4469 3.28231 25.3425C3.38695 25.2378 3.4456 25.0959 3.4456 24.9481V24.4212L8.81849 25.5058C8.85552 25.5099 8.89301 25.5099 8.93004 25.5058C8.98684 25.5056 9.04319 25.4973 9.09747 25.4807L13.5113 24.0865L13.556 24.0697L16.3443 22.9069L16.344 22.9072C16.3992 22.8851 16.4501 22.854 16.4947 22.8152L17.6575 21.8171L17.6572 21.8168C17.8923 21.6174 18.0399 21.3343 18.0691 21.0275C18.0983 20.7207 18.0066 20.4146 17.8134 20.1745L17.5988 19.9101ZM2.33054 24.3907H1.12311V19.001H2.33054V24.3907ZM16.9324 20.9724L15.8337 21.9121L13.1514 23.0273L8.89668 24.3741L3.44559 23.2754V20.0941L5.95494 21.0561C6.01658 21.0793 6.08166 21.0915 6.14743 21.0922L8.21086 21.12H8.21063C8.25985 21.1205 8.30861 21.1138 8.35575 21.1005L10.8819 20.451C11.0074 20.5591 11.125 20.6766 11.2331 20.8022C11.2777 20.9736 11.3103 21.1479 11.3308 21.3236L9.73032 21.8562L8.15215 22.0821C7.8442 22.1037 7.61192 22.3707 7.63354 22.6787C7.65516 22.9868 7.92217 23.2189 8.23013 23.1973H8.31108L9.93659 22.9632C9.96994 22.9602 10.0028 22.9526 10.0341 22.9408L12.1254 22.2438C12.2528 22.2021 12.36 22.1147 12.4264 21.9984L15.3263 21.3236C15.3714 21.3121 15.4153 21.2962 15.4574 21.2762L16.648 20.6601C16.6703 20.6601 16.7067 20.635 16.729 20.6182L16.9408 20.897C16.9523 20.9218 16.9491 20.9508 16.9323 20.9724L16.9324 20.9724Z" fill="#4D4D4D"/>
<path d="M13.9491 20.2086C14.097 20.2086 14.2389 20.1497 14.3433 20.0453C14.4479 19.9407 14.5068 19.7988 14.5068 19.6509V12.1224C14.5068 11.9745 14.4479 11.8326 14.3433 11.7282C14.2389 11.6236 14.097 11.5649 13.9491 11.5649H5.02646C4.71851 11.5649 4.46875 11.8145 4.46875 12.1224V18.5134C4.46875 18.8214 4.71851 19.0709 5.02646 19.0709C5.33441 19.0709 5.58418 18.8214 5.58418 18.5134V12.6803H7.83983L7.88997 16.0738C7.89112 16.2718 7.99737 16.4542 8.16894 16.5533C8.25403 16.6004 8.35017 16.6246 8.44768 16.623C8.54635 16.6225 8.64294 16.5947 8.72643 16.542L9.53232 16.054L10.3492 16.5197C10.5235 16.6204 10.7384 16.6193 10.9115 16.5172C11.0849 16.4151 11.1896 16.2274 11.1857 16.0262L11.1383 12.6804H13.3912V19.6507C13.3912 19.7986 13.4501 19.9405 13.5545 20.0451C13.6592 20.1495 13.8011 20.2084 13.949 20.2084L13.9491 20.2086ZM9.80572 14.9109C9.63323 14.8114 9.42072 14.8114 9.248 14.9109L8.99709 15.0616L8.96374 12.7445L10.0343 12.7277L10.0677 15.0448L9.80572 14.9109Z" fill="#4D4D4D"/>
</svg>
