<svg width="126" height="76" viewBox="0 0 126 76" fill="none" xmlns="http://www.w3.org/2000/svg">
<g clip-path="url(#clip0_58_120)">
<path d="M8.94302 52.0448L13.645 42.3383H17.1946L8.80473 59.1628L0 42.3383H3.96443L8.94302 52.0448Z" fill="#005778"/>
<path d="M27.1519 58.8852L26.0916 56.6666H18.1167L17.0564 58.8852H13.5068L22.2194 42.0607L30.9319 58.8852H27.1519ZM22.035 48.393L19.5457 53.5235H24.5704L22.035 48.393Z" fill="#005778"/>
<path d="M32.3157 42.3383H35.773V55.7425H42.4112V58.8393H32.3618V42.3383H32.3157Z" fill="#005778"/>
<path d="M50.9379 59.1628C50.016 59.1628 49.1401 59.0242 48.3564 58.7931C47.5728 58.562 46.9274 58.1922 46.3281 57.6838C45.7288 57.1753 45.314 56.6669 44.8991 55.9736C44.4842 55.2803 44.2537 54.5869 44.0693 53.8012C43.8849 53.0154 43.7927 52.1372 43.7927 51.2128V42.3383H47.2501V51.8137C47.2501 53.1079 47.5728 54.1247 48.172 54.818C48.7713 55.5114 49.7394 55.8811 50.9379 55.8811C52.1826 55.8811 53.1045 55.5114 53.7038 54.818C54.3031 54.1247 54.5797 53.1079 54.5797 51.8137V42.3383H58.037V51.4901C58.037 53.8936 57.3916 55.7425 56.147 57.1291C54.9023 58.5157 53.1506 59.1628 50.9379 59.1628Z" fill="#005778"/>
<path d="M72.7432 51.9058V42.338H76.1544V59.1625L64.4455 49.3636V58.8852H60.9882V42.0607L72.7432 51.9058Z" fill="#F58220"/>
<path d="M90.4907 58.4693C89.4305 58.9316 88.3241 59.1627 87.1717 59.1627C86.0192 59.1627 84.9129 58.9316 83.8526 58.4693C82.7924 58.0071 81.8704 57.4062 81.1329 56.6205C80.3953 55.8347 79.7499 54.9565 79.335 53.8934C78.9201 52.8303 78.6436 51.721 78.6436 50.5655C78.6436 49.0402 79.0123 47.6073 79.796 46.2669C80.5797 44.9265 81.5938 43.9096 82.8846 43.1701C84.1753 42.4305 85.6043 42.0145 87.1717 42.0145C88.3241 42.0145 89.4305 42.2456 90.4907 42.7078C91.551 43.1701 92.4729 43.7709 93.2105 44.5105C93.9481 45.25 94.5934 46.1745 95.0083 47.2375C95.4232 48.3006 95.6998 49.4099 95.6998 50.5655C95.6998 51.721 95.4693 52.8303 95.0083 53.8934C94.5473 54.9565 93.9481 55.8809 93.2105 56.6205C92.4729 57.36 91.5049 58.0071 90.4907 58.4693ZM87.1256 45.3425C85.7426 45.3425 84.5441 45.8509 83.576 46.8678C82.608 47.8846 82.147 49.1326 82.147 50.6117C82.147 52.0908 82.608 53.3388 83.576 54.3556C84.5441 55.3725 85.7426 55.8809 87.1256 55.8809C88.0475 55.8809 88.8773 55.6498 89.661 55.1876C90.4446 54.7254 91.0439 54.0783 91.4588 53.2926C91.8737 52.5068 92.1042 51.5824 92.1042 50.6117C92.1042 49.1788 91.5971 47.9309 90.629 46.914C89.661 45.8971 88.5085 45.3425 87.1256 45.3425Z" fill="#F58220"/>
<path d="M103.675 52.0448L108.377 42.3383H111.927L103.537 59.1628L94.7322 42.3383H98.6966L103.675 52.0448Z" fill="#F58220"/>
<path d="M121.884 58.8852L120.824 56.6666H112.849L111.789 58.8852H108.239L116.952 42.0607L125.664 58.8852H121.884ZM116.767 48.393L114.278 53.5235H119.303L116.767 48.393Z" fill="#F58220"/>
<path d="M68.179 0L78.4589 0.184883L54.3035 33.7879C53.2432 35.267 51.0766 35.267 50.0164 33.7879L46.9739 29.5355L68.179 0Z" fill="#F58220"/>
<path d="M88.7852 0L99.0651 0.184882L75.8778 33.1407C74.587 34.9895 71.8673 35.1282 70.3921 33.3718L67.5341 30.0438L88.7852 0Z" fill="url(#paint0_linear_58_120)"/>
<path d="M35.4945 35.3601L25.2146 35.1752L49.0934 1.98822C50.338 0.231806 52.9195 0.0931361 54.3946 1.66466L57.4371 4.94639L35.4945 35.3601Z" fill="url(#paint1_linear_58_120)"/>
<path d="M61.1718 9.06004L54.2571 1.61841C52.8281 0.0468877 50.2927 0.231779 49.0481 1.94197L46.2361 5.82455L55.6862 16.6866L61.1718 9.06004Z" fill="url(#paint2_linear_58_120)"/>
<path d="M67.5791 15.9929L62.0012 23.8043L70.5294 33.557C71.9584 35.221 74.5399 35.0823 75.7846 33.2797L79.1497 28.5189L67.5791 15.9929Z" fill="url(#paint3_linear_58_120)"/>
<path d="M48.8641 17.7025L43.6089 24.913L46.9741 29.5813C49.5555 33.1404 54.8107 33.1404 57.3922 29.5813L48.8641 17.7025Z" fill="#F58220"/>
<path d="M43.0085 9.52159L36.1399 0L25.86 0.184882L37.7533 16.7783L43.0085 9.52159Z" fill="#F58220"/>
</g>
<defs>
<linearGradient id="paint0_linear_58_120" x1="67.5675" y1="17.3074" x2="99.0812" y2="17.3074" gradientUnits="userSpaceOnUse">
<stop stop-color="#2484C6"/>
<stop offset="0.6594" stop-color="#005778"/>
<stop offset="1" stop-color="#165394" stop-opacity="0.7"/>
</linearGradient>
<linearGradient id="paint1_linear_58_120" x1="25.1986" y1="17.9783" x2="57.3827" y2="17.9783" gradientUnits="userSpaceOnUse">
<stop stop-color="#2484C6"/>
<stop offset="0.6594" stop-color="#005778"/>
<stop offset="1" stop-color="#165394" stop-opacity="0.7"/>
</linearGradient>
<linearGradient id="paint2_linear_58_120" x1="46.2903" y1="8.61294" x2="61.1839" y2="8.61294" gradientUnits="userSpaceOnUse">
<stop stop-color="#2484C6"/>
<stop offset="0.6594" stop-color="#005778"/>
<stop offset="1" stop-color="#165394" stop-opacity="0.7"/>
</linearGradient>
<linearGradient id="paint3_linear_58_120" x1="61.9849" y1="25.3556" x2="79.1334" y2="25.3556" gradientUnits="userSpaceOnUse">
<stop stop-color="#2484C6"/>
<stop offset="0.6594" stop-color="#005778"/>
<stop offset="1" stop-color="#165394" stop-opacity="0.7"/>
</linearGradient>
<clipPath id="clip0_58_120">
<rect width="125.664" height="75.1096" fill="white"/>
</clipPath>
</defs>
</svg>
