<svg width="30" height="30" viewBox="0 0 30 30" fill="none" xmlns="http://www.w3.org/2000/svg">
<path d="M19.606 0H7.01035C4.78436 0 2.97363 1.81108 2.97363 4.03707V25.9629C2.97363 28.1889 4.78471 30 7.0107 30H22.9909C25.2165 30 27.0276 28.1893 27.0276 25.9629V8.29543L19.606 0ZM20.1936 3.84876L23.5842 7.6383H20.1936V3.84876ZM22.9905 27.8722H7.01035C5.95746 27.8722 5.10104 27.0158 5.10104 25.9629V4.03707C5.10139 2.98418 5.95782 2.12776 7.01035 2.12776H18.0658V9.76571H24.8995V25.9629C24.8998 27.0158 24.0434 27.8722 22.9905 27.8722Z" fill="#005778"/>
</svg>
