<svg width="1500" height="240" viewBox="0 0 1500 240" fill="none" xmlns="http://www.w3.org/2000/svg">
<path d="M0 39.2498L50 67.0345C100 94.403 200 150.597 300 166.935C400 183.897 500 161.003 600 144.665C700 127.703 800 117.297 900 83.6845C1000 50.6967 1100 -5.49704 1200 0.43452C1300 5.94983 1400 72.5498 1450 105.85L1500 139.15V239.05H1450C1400 239.05 1300 239.05 1200 239.05C1100 239.05 1000 239.05 900 239.05C800 239.05 700 239.05 600 239.05C500 239.05 400 239.05 300 239.05C200 239.05 100 239.05 50 239.05H0V39.2498Z" fill="#035C7D"/>
</svg>
