<svg width="16" height="16" viewBox="0 0 16 16" fill="none" xmlns="http://www.w3.org/2000/svg">
<g clip-path="url(#clip0_251_763)">
<path d="M15.429 3.3696C15.4241 2.99457 15.1355 2.68476 14.7621 2.6505C11.6591 2.36026 9.12679 0.701962 8.29195 0.0953886C8.11748 -0.0317962 7.88105 -0.0317962 7.70658 0.0953886C6.87336 0.701962 4.34107 2.36026 1.23809 2.6505C0.864691 2.68476 0.57771 2.99457 0.571188 3.3696C0.533685 5.81709 0.926653 14.1265 7.81257 15.9756C7.93486 16.0082 8.06367 16.0082 8.18597 15.9756C15.0719 14.1281 15.4648 5.81707 15.429 3.3696Z" fill="#005778"/>
<path d="M7.87364 12.9847L7.99465 12.4996C5.87795 11.9716 4.75711 10.5329 4.15581 9.00274C3.5591 7.48426 3.4912 5.90826 3.50052 5.15404C5.61504 4.96835 7.34085 3.96281 7.99933 3.52923C8.65817 3.96243 10.3842 4.9683 12.4991 5.15404C12.5079 5.90865 12.4396 7.48469 11.8429 9.0031C11.2414 10.5334 10.1206 11.9721 8.00399 12.4996L8.12489 12.9847M7.87364 12.9847L7.99386 12.4994C7.99719 12.5002 8.00134 12.5002 8.00468 12.4994L8.12489 12.9847M7.87364 12.9847C7.95593 13.0051 8.04261 13.0051 8.12489 12.9847M7.87364 12.9847C3.24035 11.829 2.97593 6.63568 3.00117 5.106C3.00555 4.8716 3.19865 4.67797 3.4499 4.65656L12.9985 5.106C13.0226 6.63567 12.7582 11.8301 8.12489 12.9847" fill="#005778" stroke="white"/>
</g>
<defs>
<clipPath id="clip0_251_763">
<rect width="16" height="16" fill="white"/>
</clipPath>
</defs>
</svg>
