<svg width="70" height="70" viewBox="0 0 70 70" fill="none" xmlns="http://www.w3.org/2000/svg">
<g clip-path="url(#clip0_281_386)">
<path d="M35.1308 24.4088C36.0897 24.4088 36.8743 23.6242 36.8743 22.6653C36.8743 21.7064 36.0897 20.9219 35.1308 20.9219C27.4596 20.9219 21.1831 27.1983 21.1831 34.8696C21.1831 42.5408 27.4596 48.8173 35.1308 48.8173C42.802 48.8173 49.0785 42.5408 49.0785 34.8696C49.0785 33.9107 48.2939 33.1261 47.335 33.1261C46.3761 33.1261 45.5916 33.9107 45.5916 34.8696C45.5916 40.623 40.8842 45.3303 35.1308 45.3303C29.3774 45.3303 24.67 40.623 24.67 34.8696C24.67 29.1161 29.2902 24.4088 35.1308 24.4088Z" fill="#484848"/>
<path d="M68.3437 24.4955C68.0822 23.5366 67.0361 23.1007 66.1643 23.3622C65.2926 23.6238 64.7696 24.5827 65.0311 25.5416C70.2615 42.1045 61.0211 59.8006 44.3711 65.031C27.721 70.2614 10.112 61.021 4.96883 44.4581C-0.174385 27.8952 8.97879 10.1991 25.6289 4.96872C31.731 3.05092 38.3561 3.05092 44.4582 4.96872C45.33 5.31742 46.376 4.79438 46.6376 3.83547C46.8991 2.87657 46.4632 1.91767 45.5043 1.65615H45.4171C27.0236 -4.18445 7.40967 6.10198 1.56908 24.4955C-4.27152 42.889 6.10208 62.5901 24.4956 68.3436C42.8891 74.097 62.5902 63.8977 68.3437 45.417C70.523 38.6175 70.523 31.295 68.3437 24.4955Z" fill="#484848"/>
<path d="M38.4435 12.4659C38.4435 11.507 37.6589 10.6353 36.7 10.5481C36.177 10.4609 35.6539 10.4609 35.1309 10.4609C21.6191 10.4609 10.7224 21.3576 10.7224 34.8694C10.7224 48.3812 21.6191 59.2779 35.1309 59.2779C48.6427 59.2779 59.5394 48.3812 59.5394 34.8694C59.5394 34.2592 59.5393 33.649 59.4522 32.9516C59.2778 31.9927 58.4933 31.2953 57.5344 31.3825C56.5755 31.4697 55.8781 32.3414 55.9653 33.3003C55.9653 33.3875 55.9653 33.4746 56.0524 33.5618C56.0524 33.9977 56.1396 34.4335 56.1396 34.8694C56.1396 46.4634 46.8121 55.7909 35.2181 55.7909C23.624 55.7909 14.2965 46.4634 14.2965 34.8694C14.2965 23.2754 23.624 13.9479 35.2181 13.9479C35.6539 13.9479 36.0898 13.9479 36.5257 14.035H36.8743C37.6589 14.1222 38.3563 13.4248 38.4435 12.4659Z" fill="#484848"/>
<path d="M45.5914 15.6915V21.968L33.9102 33.6492C33.2129 34.3466 33.2129 35.3927 33.9102 36.09C34.6076 36.7874 35.6537 36.7874 36.3511 36.09L48.0323 24.4088H54.3088C54.7446 24.4088 55.1805 24.2345 55.5292 23.8858L65.9899 13.425C66.6873 12.7277 66.6873 11.6816 65.9899 10.9842C65.6413 10.6355 65.2054 10.4612 64.7695 10.4612H59.5391V5.23077C59.5391 4.27186 58.7546 3.4873 57.7957 3.4873C57.3598 3.4873 56.9239 3.66165 56.5753 4.01034L46.1145 14.4711C45.7658 14.8198 45.5914 15.2557 45.5914 15.6915ZM49.0784 16.3889L56.0522 9.41508V12.2046C56.0522 13.1635 56.8368 13.9481 57.7957 13.9481H60.5852L53.6114 20.9219H49.0784V16.3889Z" fill="#F58220"/>
</g>
<defs>
<clipPath id="clip0_281_386">
<rect width="70" height="70" fill="white"/>
</clipPath>
</defs>
</svg>
