<svg width="16" height="16" viewBox="0 0 16 16" fill="none" xmlns="http://www.w3.org/2000/svg">
<path d="M9.64481 0.160156H6.20641C5.78561 0.160156 5.44641 0.537756 5.44641 1.00176C5.44641 1.46576 5.78721 1.84336 6.20641 1.84336H9.66241C10.064 1.84336 10.3984 1.46576 10.3984 1.00176C10.4048 0.531356 10.072 0.160156 9.64481 0.160156Z" fill="#005778"/>
<path d="M13.3792 0.716797H12.3904H11.6736C11.6928 0.809597 11.6976 0.902397 11.6976 0.995197C11.6976 1.7008 11.184 2.3984 10.5792 2.3984H5.32322C4.68002 2.3984 4.16642 1.7056 4.16642 0.995197C4.16642 0.902397 4.17922 0.809597 4.19042 0.716797H3.54082H2.45922C1.06882 0.716797 0.721619 1.5088 0.721619 2.6464V13.9296C0.721619 15.1536 1.20962 15.84 2.56482 15.84H13.2736C14.6208 15.84 15.2768 15.3024 15.2768 13.9296V2.6448C15.2768 1.5072 14.6656 0.716797 13.3792 0.716797ZM11.624 11.8576H4.17922C3.90722 11.8576 3.62882 11.5232 3.62882 11.2448C3.62882 10.9728 3.86402 10.7376 4.13602 10.7376H11.5552C11.8272 10.7376 12.0624 10.9472 12.08 11.2448C12.0864 11.5184 11.896 11.8576 11.624 11.8576ZM11.648 8.872H4.20962C3.93762 8.872 3.75842 8.576 3.75842 8.3024C3.75842 8.0304 3.99362 7.752 4.26562 7.752H11.6848C11.9568 7.752 12.192 8.0048 12.2096 8.3024C12.2112 8.5744 11.9264 8.872 11.648 8.872ZM11.648 5.7984H4.20962C3.93762 5.7984 3.75842 5.5024 3.75842 5.2288C3.75842 4.9568 3.99362 4.6784 4.26562 4.6784H11.6848C11.9568 4.6784 12.192 4.9312 12.2096 5.2288C12.2112 5.5088 11.9264 5.7984 11.648 5.7984Z" fill="#005778"/>
</svg>
