<svg width="20" height="14" viewBox="0 0 20 14" fill="none" xmlns="http://www.w3.org/2000/svg">
<path d="M18.7499 0.125H1.24997C0.918548 0.125 0.60049 0.256808 0.366063 0.491227C0.131644 0.725646 0 1.04353 0 1.37513V12.6252C0 12.9568 0.131644 13.2747 0.366063 13.5091C0.600482 13.7435 0.918536 13.8752 1.24997 13.8752H18.7499C19.0815 13.8752 19.3994 13.7435 19.6338 13.5091C19.8682 13.2747 20 12.9568 20 12.6252V1.37513C20 1.04355 19.8682 0.725654 19.6338 0.491227C19.3994 0.256808 19.0815 0.125 18.7499 0.125ZM15.6812 12.6251H4.31877C4.18844 11.8587 3.82322 11.1514 3.27337 10.6018C2.72351 10.0519 2.01647 9.68673 1.24988 9.5564V4.44385C2.01647 4.31353 2.72355 3.9483 3.27337 3.39845C3.82322 2.8486 4.18844 2.14156 4.31877 1.37514H15.6812C15.8115 2.14156 16.1767 2.84864 16.7266 3.39845C17.2764 3.94826 17.9835 4.31352 18.7499 4.44385V9.5564C17.9835 9.68672 17.2764 10.0519 16.7266 10.6018C16.1767 11.1515 15.8115 11.8587 15.6812 12.6251ZM18.7499 3.16905C18.3188 3.05572 17.9255 2.83004 17.6105 2.5148C17.2952 2.19971 17.0695 1.80645 16.9562 1.37539H18.7499L18.7499 3.16905ZM3.04354 1.37535C2.93021 1.80641 2.70437 2.19971 2.38929 2.51476C2.07404 2.83001 1.68094 3.0557 1.24972 3.16901V1.37531L3.04354 1.37535ZM1.24967 10.8314C1.6809 10.9446 2.07403 11.1704 2.38925 11.4857C2.70433 11.8007 2.93019 12.194 3.0435 12.6251H1.24963L1.24967 10.8314ZM16.956 12.6251C17.0693 12.1941 17.295 11.8008 17.6103 11.4857C17.9253 11.1705 18.3186 10.9446 18.7497 10.8315V12.6252L16.956 12.6251ZM9.99963 2.62511C8.8394 2.62511 7.72656 3.08602 6.90617 3.90658C6.08561 4.72697 5.62469 5.83981 5.62469 7.00004C5.62469 8.16044 6.08561 9.27328 6.90617 10.0937C7.72656 10.9142 8.8394 11.3751 9.99963 11.3751C11.16 11.3751 12.2729 10.9142 13.0933 10.0937C13.9138 9.27328 14.3747 8.16044 14.3747 7.00004C14.3747 5.83981 13.9138 4.72697 13.0933 3.90658C12.2729 3.08602 11.16 2.62511 9.99963 2.62511ZM9.99963 10.125C9.17083 10.125 8.37603 9.79573 7.7899 9.20959C7.20394 8.62363 6.87466 7.82866 6.87466 6.99987C6.87466 6.17108 7.20394 5.37628 7.7899 4.79015C8.37603 4.20419 9.17083 3.87491 9.99963 3.87491C10.8284 3.87491 11.6234 4.20418 12.2093 4.79015C12.7955 5.37628 13.1248 6.17108 13.1248 6.99987C13.1248 7.82866 12.7955 8.62363 12.2093 9.20959C11.6234 9.79573 10.8284 10.125 9.99963 10.125Z" fill="#767676"/>
</svg>
