<svg width="374" height="374" viewBox="0 0 374 374" fill="none" xmlns="http://www.w3.org/2000/svg">
<circle cx="187" cy="187" r="187" fill="#F2F6F8"/>
<path d="M287.166 213.196C286.482 212.968 283.418 212.866 275.441 212.816C268.73 212.79 264.526 212.689 264.349 212.537C264.121 212.359 263.893 212.385 263.64 212.587C263.336 212.841 263.184 212.841 262.88 212.587C262.601 212.359 262.399 212.359 262.171 212.537C261.968 212.714 261.715 212.714 261.487 212.562C260.955 212.233 244.241 212.309 243.836 212.638C243.608 212.816 243.405 212.816 243.126 212.587C242.823 212.334 242.671 212.334 242.367 212.587C242.063 212.841 241.911 212.841 241.607 212.587C241.354 212.385 241.126 212.359 240.923 212.511C240.721 212.664 235.428 212.79 227.121 212.816C214.611 212.866 213.623 212.841 213.775 212.461C213.902 212.131 213.826 212.055 213.344 212.131C212.863 212.182 212.483 212.689 211.546 214.59C210.863 215.909 210.153 217.176 209.951 217.405C209.748 217.633 209.571 217.912 209.571 218.013C209.571 218.444 204.202 226.455 201.67 229.777C200.176 231.729 199.694 232.591 199.694 233.174C199.694 233.909 199.72 233.935 200.15 233.554C200.581 233.174 201.543 233.123 208.837 233.123C214.737 233.123 217.143 233.047 217.371 232.819C217.574 232.616 217.751 232.616 218.055 232.87C218.359 233.123 218.511 233.123 218.815 232.87C219.118 232.616 219.27 232.616 219.574 232.87C219.878 233.123 220.03 233.123 220.334 232.87C220.638 232.616 220.79 232.616 221.094 232.87C221.398 233.123 221.55 233.123 221.854 232.87C222.157 232.616 222.309 232.616 222.613 232.87C222.917 233.123 223.069 233.123 223.373 232.87C223.677 232.616 223.829 232.616 224.133 232.87C224.335 233.022 224.614 233.098 224.766 232.997C225.146 232.768 232.161 232.667 259.815 232.489C272.883 232.413 283.697 232.287 283.823 232.211C283.95 232.135 284.203 232.211 284.406 232.363C284.71 232.616 284.862 232.616 285.166 232.363C285.469 232.109 285.621 232.109 285.925 232.363C286.204 232.591 286.381 232.616 286.66 232.388C286.837 232.236 287.166 232.16 287.369 232.236C287.546 232.312 287.977 232.135 288.281 231.856C288.838 231.323 288.838 231.273 288.838 223.134C288.838 213.931 288.812 213.754 287.166 213.196Z" fill="#DFE2E9"/>
<path d="M202.505 188.882C204.43 186.043 205.975 184.141 206.785 183.609C207.469 183.178 207.494 183.178 208.304 183.863C209.115 184.522 209.115 184.572 208.988 186.17C208.862 187.412 208.507 188.451 207.545 190.454C206.861 191.925 206.278 193.345 206.278 193.598C206.278 193.852 206.177 194.08 206.025 194.08C205.899 194.08 205.772 194.46 205.772 194.942C205.772 195.753 205.823 195.804 206.912 195.956C207.519 196.057 208.102 196.235 208.178 196.387C208.279 196.514 208.684 196.615 209.14 196.615C209.748 196.615 209.849 196.539 209.621 196.311C208.963 195.652 209.317 195.474 211.09 195.55C212.23 195.601 213.015 195.525 213.243 195.347C213.547 195.094 213.699 195.094 214.003 195.347C214.306 195.601 214.458 195.601 214.762 195.347C215.066 195.094 215.218 195.094 215.522 195.347C215.826 195.601 215.978 195.601 216.282 195.347C216.586 195.094 216.738 195.094 217.042 195.347C217.345 195.601 217.497 195.601 217.801 195.347C218.105 195.094 218.257 195.094 218.561 195.347C218.764 195.5 219.042 195.576 219.194 195.474C219.473 195.297 226.31 195.221 258.929 194.967C270.274 194.891 279.67 194.739 279.771 194.688C279.898 194.612 280.151 194.688 280.354 194.84C280.657 195.094 280.809 195.094 281.113 194.84C281.417 194.587 281.569 194.587 281.873 194.84C282.101 195.043 282.38 195.069 282.582 194.942C282.734 194.815 283.975 194.714 285.292 194.739C289.091 194.815 288.837 195.5 288.837 185.308C288.837 175.851 288.888 176.155 286.938 175.623C286.305 175.471 282.202 175.319 276.302 175.293C270.705 175.268 266.552 175.141 266.374 174.989C266.146 174.837 265.918 174.837 265.716 175.014C265.513 175.192 265.26 175.192 265.032 175.065C264.45 174.71 240.746 174.736 240.315 175.091C240.036 175.319 239.859 175.293 239.581 175.065C239.277 174.812 239.125 174.812 238.821 175.065C238.517 175.319 238.365 175.319 238.061 175.065C237.859 174.913 237.555 174.862 237.377 174.964C236.947 175.243 237.276 175.243 219.473 175.293C208.836 175.319 204.05 175.42 203.822 175.623C203.594 175.8 203.391 175.8 203.113 175.572C202.809 175.319 202.657 175.319 202.353 175.572C202.049 175.826 201.897 175.826 201.593 175.572C201.391 175.42 201.112 175.369 200.935 175.471C200.783 175.572 198.175 175.699 195.161 175.75C192.147 175.8 189.539 175.902 189.387 175.952C189.134 176.029 189.058 178.107 189.058 185.105C189.058 193.192 189.108 194.207 189.488 194.638C189.716 194.891 190.147 195.094 190.476 195.094C190.805 195.094 191.134 195.221 191.21 195.347C191.286 195.5 192.426 195.601 193.768 195.601C196.174 195.601 196.604 195.804 195.845 196.564C195.617 196.793 195.718 196.869 196.351 196.869C196.858 196.869 197.162 196.742 197.162 196.539C197.162 196.336 197.44 195.804 197.795 195.322C198.175 194.84 199.061 193.649 199.795 192.685C200.53 191.697 201.745 189.998 202.505 188.882ZM207.165 195.094C206.937 195.094 206.785 194.866 206.785 194.562C206.785 194.105 206.836 194.08 207.165 194.333C207.367 194.511 207.545 194.739 207.545 194.866C207.545 194.993 207.367 195.094 207.165 195.094Z" fill="#DFE2E9"/>
<path d="M191.008 157.673C191.59 157.698 192.147 157.8 192.223 157.876C192.502 158.129 209.419 158.028 209.773 157.774C209.976 157.597 210.204 157.622 210.457 157.825C210.761 158.079 210.913 158.079 211.217 157.825C211.521 157.572 211.673 157.572 211.977 157.825C212.179 157.977 212.458 158.053 212.61 157.952C212.888 157.774 220.891 157.673 254.117 157.445C265.868 157.369 275.593 157.242 275.719 157.166C275.846 157.09 276.099 157.166 276.302 157.318C276.606 157.572 276.758 157.572 277.061 157.318C277.365 157.065 277.517 157.065 277.821 157.318C278.024 157.47 278.302 157.546 278.454 157.445C278.632 157.343 280.809 157.217 283.342 157.141C287.571 157.039 287.976 156.989 288.382 156.532C288.761 156.076 288.812 155.163 288.837 147.785C288.837 142.639 288.761 139.368 288.584 139.089C287.976 137.923 287.318 137.822 278.252 137.771C273.06 137.746 269.591 137.644 269.413 137.467C269.185 137.315 268.983 137.315 268.755 137.492C268.552 137.67 268.299 137.67 268.071 137.543C267.489 137.163 237.605 137.213 237.225 137.594C237.023 137.796 236.846 137.796 236.567 137.568C236.339 137.391 236.035 137.34 235.858 137.441C235.453 137.695 235.605 137.695 217.042 137.771C207.849 137.822 201.669 137.949 201.391 138.101C201.062 138.253 200.808 138.253 200.555 138.025C200.277 137.796 200.125 137.796 199.821 138.05C199.517 138.303 199.365 138.303 199.061 138.05C198.757 137.796 198.605 137.796 198.301 138.05C197.997 138.303 197.845 138.303 197.541 138.05C197.339 137.898 197.035 137.847 196.883 137.949C196.706 138.05 195.009 138.151 193.059 138.202C191.134 138.253 189.438 138.354 189.311 138.43C189.159 138.532 189.058 142.03 189.058 147.532C189.058 157.749 189.032 157.572 191.008 157.673Z" fill="#DFE2E9"/>
<path d="M289.098 256.978C289.085 255.512 289.06 254.379 289.024 253.913H289.118L289.012 253.768C289.007 253.722 288.999 253.695 288.992 253.684C288.946 253.613 288.875 253.542 288.786 253.471L288.662 253.304C288.409 252.975 288.13 252.746 288.055 252.797C287.979 252.848 287.523 252.772 287.042 252.67C286.56 252.544 285.699 252.391 285.117 252.315C284.851 252.282 284.648 252.262 284.496 252.26C284.299 252.092 284.185 252.123 284.053 252.366C283.901 252.594 283.775 252.62 283.673 252.417C283.42 252.037 279.064 252.037 278.811 252.417C278.71 252.62 278.583 252.594 278.406 252.366C278.203 252.087 278.127 252.087 278.026 252.341C277.925 252.594 277.823 252.594 277.494 252.341C277.19 252.062 277.089 252.062 276.988 252.341C276.912 252.569 276.81 252.594 276.557 252.391C276.38 252.244 269.205 252.153 260.463 252.12C260.326 252.085 260.223 251.998 260.223 251.884C260.223 251.758 260.045 251.631 259.843 251.631C259.64 251.631 259.463 251.758 259.463 251.884C259.463 251.996 259.313 252.08 259.096 252.115C258.916 252.115 258.736 252.115 258.554 252.113C258.341 252.075 258.197 251.991 258.197 251.882C258.197 251.527 257.513 251.578 257.336 251.958C257.234 252.135 257.133 252.161 257.057 252.009C256.981 251.857 255.512 251.806 252.954 251.907C250.83 251.981 249.064 252.077 248.918 252.107C247.786 252.11 246.666 252.113 245.567 252.115C245.4 252.072 245.24 251.953 245.18 251.831C245.053 251.578 245.002 251.578 244.876 251.831C244.812 251.96 244.638 252.082 244.463 252.12C235.868 252.153 228.868 252.244 228.693 252.389C228.44 252.592 228.339 252.566 228.237 252.338C228.136 252.085 228.035 252.085 227.832 252.389C227.579 252.719 227.528 252.719 227.326 252.414C227.148 252.135 226.996 252.11 226.743 252.313C226.649 252.397 225.679 252.462 223.679 252.511C222.43 252.468 220.574 252.435 217.803 252.389C213.194 252.313 209.421 252.338 209.37 252.465C209.337 252.533 209.234 252.587 209.109 252.617C208.722 252.617 208.329 252.617 207.927 252.617C193.568 252.642 189.414 252.719 189.237 252.972C189.136 253.124 189.085 256.978 189.161 261.516C189.237 266.054 189.313 270.136 189.313 270.567C189.313 270.813 189.361 271.033 189.455 271.229C189.389 271.287 189.445 271.386 189.592 271.556C189.769 271.784 190.149 272.063 190.453 272.164C190.731 272.291 190.984 272.392 191.035 272.392C191.048 272.405 191.058 272.349 191.068 272.255C191.372 272.326 191.714 272.382 192.099 272.418C192.213 272.428 192.408 272.438 192.674 272.448C192.717 272.468 192.76 272.486 192.808 272.494C193.466 272.671 207.344 272.697 208.003 272.519H208.005C221.111 272.494 238.025 272.359 241.482 272.215V272.291L255.082 272.24C262.578 272.189 269.086 272.113 269.542 272.037C269.699 272.004 269.838 271.959 269.957 271.908C280.452 271.898 288.503 271.847 288.612 271.758C288.764 271.682 288.84 271.429 288.789 271.201C288.764 270.947 288.814 270.643 288.916 270.491C289.047 270.26 289.126 263.372 289.108 258.484C289.149 258.41 289.187 258.324 289.219 258.22C289.364 257.784 289.29 257.282 289.098 256.978Z" fill="#005778"/>
<path d="M216.054 167.941C218.298 167.913 219.475 167.87 220.088 167.743C221.869 167.708 223.37 167.677 224.333 167.652C224.52 167.698 224.809 167.713 225.247 167.713C225.956 167.713 226.589 167.586 226.69 167.434C226.994 166.927 226.209 166.521 225.095 166.623C224.715 166.668 224.457 166.716 224.29 166.792C223.542 166.744 222.289 166.737 220.182 166.749C219.716 166.749 219.295 166.749 218.911 166.749C218.351 166.737 217.619 166.729 216.662 166.724H212.61V166.79C212.445 166.792 212.27 166.795 212.078 166.8H212.075C211.673 166.691 210.705 166.694 208.381 166.724C206.572 166.749 205.309 166.777 204.43 166.825C204.397 166.792 204.364 166.76 204.329 166.724C203.949 166.344 203.771 166.344 202.682 166.673C202.371 166.77 202.085 166.894 201.867 167.018C201.748 167.021 201.629 167.023 201.51 167.023C201.039 166.978 200.256 166.96 198.97 166.955C198.755 166.861 198.479 166.772 198.149 166.699C197.06 166.445 196.807 166.445 196.63 166.724C196.478 166.978 196.402 167.003 196.402 166.775C196.402 166.572 196.022 166.445 195.389 166.445C194.832 166.445 194.376 166.572 194.376 166.699C194.376 166.851 194.199 166.952 193.996 166.952C193.955 166.952 193.915 166.962 193.877 166.975C192.193 167.013 191.828 167.114 191.742 167.358C191.666 167.586 191.641 167.865 191.717 167.992C191.869 168.22 200.302 168.271 201.543 168.042C201.647 168.025 201.735 168.002 201.816 167.971C202.265 167.938 202.606 167.9 202.839 167.857C203.298 167.959 204.329 167.969 206.633 167.969C208.917 167.969 210.315 167.941 211.159 167.842C211.539 167.847 212.03 167.85 212.61 167.847V167.994L216.054 167.941Z" fill="#0E1316"/>
<path d="M311.604 167.282C311.594 167.046 311.586 166.835 311.574 166.648C311.705 166.326 311.596 165.687 311.275 164.468C311.227 164.29 311.171 164.113 311.11 163.933C311.103 163.889 311.09 163.854 311.07 163.821C310.857 163.233 310.571 162.637 310.229 162.051C310.267 161.98 310.206 161.854 310.059 161.625C309.963 161.473 309.836 161.339 309.717 161.248C309.429 160.827 309.115 160.416 308.783 160.028C308.788 159.886 308.451 159.541 307.709 158.908C306.815 158.079 305.858 157.43 304.944 157.087C303.88 156.707 303.627 156.479 303.576 155.946C303.569 155.898 303.561 155.853 303.551 155.807L303.5 146.236L303.424 136.551L303.381 136.554C303.384 136.29 303.389 136.009 303.391 135.712L303.401 135.715L303.394 135.444C303.409 133.709 303.419 131.438 303.427 128.464C303.427 124.392 303.455 120.549 303.493 117.97C303.508 117.44 303.52 116.766 303.533 115.896C303.548 115.329 303.563 114.946 303.579 114.799C303.632 114.276 303.624 113.909 303.556 113.683C303.556 112.502 303.531 111.698 303.455 111.163C303.505 110.79 303.409 110.083 303.227 109.409C303.224 109.358 303.204 109.29 303.168 109.201C303.082 108.912 302.981 108.638 302.87 108.41C302.789 108.24 302.662 108.045 302.51 107.855L302.642 107.852L302.077 107.38C301.978 107.289 301.882 107.208 301.788 107.142C301.406 106.828 300.98 106.473 300.818 106.356C300.565 106.153 299.881 106.153 298.286 106.331C298.215 106.331 298.146 106.374 298.091 106.442C297.341 106.379 296.432 106.364 295.72 106.394C295.194 106.374 294.616 106.354 293.981 106.331C292.735 106.285 291.562 106.242 290.455 106.202C290.415 106.194 290.369 106.186 290.334 106.179C289.845 106.095 289.65 106.077 289.648 106.174C289.295 106.161 288.949 106.148 288.609 106.136C288.564 106.115 288.513 106.103 288.46 106.103C288.257 106.103 288.08 106.001 288.08 105.849C288.08 105.646 286.332 105.646 283.597 105.824C283.519 105.834 283.448 105.887 283.39 105.963C279.361 105.842 276.81 105.804 275.26 105.864L275.164 105.849C274.306 105.707 273.987 105.722 273.764 106.001C272.88 106.171 273.032 106.478 273.493 106.939C273.771 107.218 275.392 107.32 281.166 107.472C282.078 107.495 282.957 107.517 283.81 107.538C283.924 107.591 284.165 107.624 284.408 107.624C284.562 107.624 284.671 107.606 284.745 107.563C284.973 107.568 285.203 107.576 285.426 107.581C285.464 107.606 285.504 107.624 285.547 107.624C285.588 107.624 285.626 107.611 285.656 107.588C295.219 107.849 300.471 108.09 300.869 108.334C301.426 108.638 302.009 110.235 302.009 111.477C302.009 111.985 302.085 112.568 302.16 112.796C302.168 112.816 302.178 112.831 302.186 112.852C302.176 113.389 302.168 113.977 302.16 114.596C302.155 114.819 302.15 115.045 302.145 115.275C301.993 116.262 301.94 117.481 302.064 118.008C302.026 119.058 301.983 119.948 301.933 120.427C301.857 121.416 301.857 121.923 301.907 121.568C301.925 121.489 301.943 121.416 301.96 121.347C301.905 122.901 301.882 125.52 301.882 129.706C301.882 131.341 301.884 132.728 301.89 133.9C301.859 133.917 301.839 134.262 301.857 134.827C301.857 135.2 301.872 135.497 301.902 135.722C301.905 136.098 301.91 136.442 301.915 136.762C301.834 136.904 301.846 137.16 301.882 137.644C301.933 138.227 301.983 142.689 302.009 147.583L302.049 154.877C302.019 155.026 302.009 155.231 302.009 155.518V156.532L300.996 156.656C300.978 156.649 300.963 156.641 300.945 156.633C300.887 156.608 300.821 156.631 300.755 156.687L300.742 156.689C300.722 156.689 300.699 156.692 300.676 156.697L300.565 156.71C300.492 156.717 300.418 156.727 300.345 156.737C300.279 156.712 300.236 156.656 300.236 156.583C300.236 156.431 300.059 156.304 299.856 156.304C299.653 156.304 299.476 156.405 299.476 156.507C299.476 156.608 299.147 156.836 298.716 156.988C298.58 157.039 298.448 157.103 298.334 157.171C297.607 157.384 296.928 157.645 296.386 157.921V157.825L295.652 158.357C295.614 158.383 295.581 158.411 295.546 158.436C295.186 158.664 294.821 158.839 294.69 158.839C294.376 158.839 292.562 160.624 291.42 161.947C291.218 162.135 291.02 162.376 290.878 162.612C290.721 162.82 290.6 162.997 290.536 163.124C290.308 163.606 290.106 164.544 290.106 165.203C290.106 165.832 290.164 166.214 290.359 166.592C290.359 166.602 290.359 166.612 290.359 166.623C290.359 166.927 290.389 167.018 290.514 166.848C290.615 166.998 290.739 167.155 290.891 167.332C291.083 167.548 291.301 167.748 291.509 167.903C291.504 167.948 291.506 167.987 291.524 168.017C291.618 168.169 291.848 168.23 292.084 168.212C292.099 168.215 292.119 168.22 292.132 168.22C292.79 168.22 292.968 168.6 292.486 169.006C292.084 169.333 291.63 169.931 291.258 170.578C291.144 170.56 291.116 170.605 291.154 170.763C290.828 171.361 290.579 171.982 290.511 172.456C290.334 173.369 290.41 173.597 291.068 174.332C291.164 174.441 291.256 174.535 291.342 174.619C291.392 174.687 291.448 174.738 291.509 174.771C291.752 174.974 291.993 175.095 292.317 175.179C292.345 175.303 292.512 175.321 292.892 175.321C292.968 175.321 293.036 175.319 293.099 175.313C293.122 175.316 293.145 175.319 293.17 175.321L294.512 175.448L293.753 176.335C292.727 177.524 292.319 178.772 292.6 179.824C292.605 179.877 292.608 179.928 292.613 179.986C292.638 180.163 292.942 180.62 293.297 181C293.677 181.355 294.006 181.659 294.082 181.659C294.115 181.659 294.1 181.586 294.057 181.474C294.29 181.593 294.535 181.692 294.791 181.771V181.913H295.432C295.832 181.971 296.229 181.976 296.597 181.913H297.017C297.653 181.913 298.164 181.89 298.524 181.852C298.764 181.882 299.157 181.804 299.904 181.609C300.714 181.38 301.55 181.178 301.753 181.127C302.082 181.051 302.158 182.09 302.259 189.138C302.274 190.021 302.29 190.87 302.307 191.671C302.3 191.78 302.292 191.907 302.285 192.054C302.285 192.482 302.297 192.736 302.333 192.853C302.34 193.208 302.348 193.545 302.355 193.867C302.285 193.981 302.259 194.161 302.259 194.437C302.259 194.683 302.292 194.79 302.376 194.772C302.381 195.013 302.388 195.241 302.393 195.454C302.361 195.652 302.358 196.039 302.386 196.643C302.437 197.53 302.487 205.111 302.512 213.452C302.512 220.393 302.561 225.053 302.649 227.396C302.525 227.545 302.533 227.908 302.614 228.765C302.632 229.051 302.654 229.325 302.675 229.561C302.614 229.817 302.682 230.598 302.908 232.352C302.776 233.671 302.766 237.294 302.766 247.196C302.766 257.363 302.766 260.9 302.91 262.132C302.897 264.393 302.892 267.256 302.892 270.851C302.892 276.814 302.915 281.983 302.935 284.777C302.781 285.096 302.748 285.966 302.715 288.293L302.649 291.501C302.596 291.82 302.523 291.952 302.388 291.995H302.031C301.852 291.972 301.722 291.97 301.649 291.995H299.929H297.726C297.711 291.952 297.701 291.904 297.701 291.843C297.701 291.615 297.523 291.437 297.321 291.437C297.118 291.437 296.941 291.64 296.941 291.894C296.941 292.025 296.906 292.114 296.857 292.137C296.84 292.137 296.822 292.137 296.804 292.137C296.782 292.127 296.761 292.107 296.738 292.074C296.511 291.744 295.498 291.668 291.243 291.668C287.09 291.668 286.254 291.719 285.975 292.074C285.874 292.226 285.646 292.15 285.418 291.845C285.089 291.414 285.038 291.389 285.038 291.769C285.038 291.985 284.985 292.114 284.894 292.162C284.831 292.162 284.77 292.165 284.709 292.165C284.603 292.129 284.476 292.043 284.329 291.896C284.101 291.668 284.025 291.668 284.025 291.921C284.025 292.124 283.873 292.2 283.646 292.099C283.471 292.041 283.344 292.074 283.291 292.193C283.243 292.193 283.192 292.195 283.147 292.195C283.076 292.091 282.977 292.036 282.835 292.023C282.602 292.023 268.879 292.003 251.453 291.977C251.42 291.975 251.392 291.972 251.356 291.972C251.242 291.972 251.151 291.975 251.068 291.977C249.665 291.975 248.241 291.975 246.798 291.972C246.446 291.972 246.096 291.972 245.752 291.972C245.694 291.957 245.623 291.947 245.532 291.947C245.461 291.947 245.392 291.954 245.329 291.97C244.134 291.97 242.969 291.967 241.837 291.967C241.817 291.954 241.789 291.947 241.758 291.947C241.72 291.947 241.685 291.954 241.652 291.967C235.08 291.965 229.564 291.97 225.112 291.985L222.613 291.97C214.684 291.929 207.81 291.886 205.41 291.886C203.034 291.825 199.063 291.792 192.729 291.767C181.89 291.741 176.851 291.64 176.395 291.437C176.007 291.28 175.726 291.057 175.521 290.664C175.516 290.651 175.514 290.639 175.509 290.626C175.501 290.606 175.486 290.585 175.473 290.565C175.149 289.863 175.02 288.656 174.926 286.443C174.87 284.734 174.83 283.885 174.731 283.466C174.701 282.064 174.655 281.57 174.475 281.392C174.518 280.799 174.554 279.81 174.579 278.454C174.627 278.441 174.627 278.429 174.579 278.406C174.604 276.963 174.62 275.113 174.62 272.876V263.673L175.582 262.659C177.137 260.986 178.241 259.766 178.953 258.937C179.654 258.141 180.277 257.398 180.687 256.848C181.518 256.116 184.16 252.858 189.055 246.433C189.587 245.749 191.182 243.923 192.575 242.402C193.641 241.259 194.55 240.199 194.935 239.669C195.219 239.329 195.48 239.01 195.703 238.734C195.708 238.731 195.71 238.729 195.715 238.726C196.019 238.549 196.678 237.889 197.159 237.23C197.64 236.596 198.222 235.887 198.425 235.658C198.878 235.174 199.473 234.388 199.846 233.82C200.026 233.62 200.241 233.359 200.502 233.022C200.742 232.717 200.968 232.418 201.16 232.157C201.537 231.706 202.039 231.064 202.606 230.314C202.786 230.19 202.91 230.03 202.961 229.842C203.984 228.468 205.164 226.808 206.202 225.264C206.562 224.729 206.896 224.227 207.21 223.753C207.38 223.684 207.499 223.509 207.532 223.266C207.633 223.114 207.729 222.969 207.823 222.822C207.922 222.766 207.993 222.66 208.028 222.513C209.532 220.221 210.33 218.923 210.33 218.773C210.33 218.674 210.495 218.413 210.687 218.19C210.715 218.167 210.738 218.14 210.756 218.109C211.31 217.437 212.508 215.029 213.017 213.713C213.06 213.713 213.093 213.71 213.113 213.703C213.268 213.637 214.504 210.889 214.914 209.776C215.241 209.076 215.572 208.158 215.823 207.187L215.843 207.111C215.871 207.053 215.899 206.989 215.924 206.908C215.957 206.794 215.975 206.685 215.988 206.576L216.279 205.488H217.849C218.52 205.488 218.913 205.476 219.143 205.415C219.667 205.41 220.285 205.4 221.015 205.387C222.777 205.352 224.335 205.278 225.135 205.212C225.257 205.21 225.401 205.199 225.573 205.184C226.242 205.141 226.579 205.022 226.695 204.801C226.784 204.723 226.801 204.619 226.748 204.487C226.741 204.434 226.718 204.391 226.677 204.358C226.629 204.284 226.566 204.206 226.485 204.119C226.219 203.835 225.477 203.962 225.059 204.241C224.943 204.251 224.851 204.269 224.778 204.292C224.15 204.218 222.985 204.228 220.685 204.272C219.999 204.279 219.343 204.294 218.751 204.312C218.434 204.246 217.993 204.221 217.393 204.221C216.532 204.221 216.152 204.119 216.152 203.891C216.152 203.283 215.443 202.091 214.633 201.305C214 200.697 213.671 200.57 212.556 200.57C212.207 200.57 211.905 200.595 211.67 200.641C211.634 200.644 211.604 200.646 211.569 200.646C211.31 200.664 211.184 200.73 211.158 200.849C211.151 200.856 211.141 200.867 211.138 200.874C211.087 201.052 210.935 201.178 210.834 201.178C210.708 201.178 210.682 200.621 210.758 199.962C210.88 198.879 210.619 197.827 210.097 196.98C210.057 196.891 210.004 196.81 209.945 196.749C209.801 196.544 209.639 196.354 209.464 196.179C209.462 196.156 209.454 196.133 209.441 196.108C209.396 196.029 209.282 195.953 209.155 195.905C208.707 195.545 208.188 195.286 207.618 195.17L206.529 194.967L207.162 193.598C207.349 193.197 207.476 192.898 207.552 192.673C207.643 192.566 207.734 192.417 207.846 192.204C208.142 191.666 208.279 191.372 208.254 191.215C208.798 190.381 209.426 188.786 209.74 187.29C209.816 187.161 209.854 186.935 209.869 186.563C210.039 185.472 210.034 185.031 209.839 184.458C209.773 183.878 209.588 183.568 209.061 183.102C208.649 182.737 208.342 182.559 207.983 182.491C207.349 182.321 206.648 182.435 205.997 182.874C205.589 183.137 204.933 183.83 204.207 184.722C204.108 184.806 203.996 184.937 203.895 185.105C203.885 185.12 203.875 185.133 203.867 185.148C203.411 185.728 202.94 186.372 202.492 187.029C202.381 187.174 202.267 187.346 202.148 187.544C201.616 188.332 200.504 189.924 199.618 191.088C198.757 192.254 197.744 193.649 197.389 194.206C197.159 194.559 196.9 194.952 196.622 195.373C196.609 195.39 196.597 195.406 196.589 195.423C194.317 198.856 190.663 204.266 188.928 206.789C188.761 206.982 188.558 207.268 188.356 207.616C187.649 208.62 186.905 209.689 186.391 210.432C186.289 210.397 186.186 210.498 186.046 210.762C185.927 210.985 185.851 211.155 185.811 211.277C184.261 213.571 179.69 219.463 176.777 222.992C176.691 223.035 176.473 223.301 176.235 223.644C176.134 223.765 176.035 223.882 175.939 223.996L175.179 224.883L175.038 209.187C175.096 209.147 175.129 209.096 175.129 209.038C175.129 208.987 175.093 208.939 175.035 208.898L175.027 208.148C175.091 208.115 175.129 208.074 175.129 208.024C175.129 207.968 175.088 207.922 175.025 207.884L175.017 207.169C175.086 207.126 175.129 207.073 175.129 207.01C175.129 206.956 175.086 206.901 175.015 206.858L175.002 205.362C175.002 205.319 175.002 205.273 175.002 205.227C175.119 203.59 175.129 199.381 175.129 188.654C175.129 177.076 175.129 173.115 174.979 171.724C174.982 170.149 174.964 168.952 174.929 168.205L175.129 168.22V162.515C175.129 158.342 175.114 157.219 174.901 156.92C174.913 155.531 174.926 154.025 174.939 152.422C175.081 152.334 175.129 152.164 175.129 151.867C175.129 151.614 175.06 151.406 174.946 151.297C174.949 150.937 174.951 150.574 174.954 150.207C175.129 149.623 175.129 147.765 175.129 141.855C175.129 137.241 175.129 135.099 175.045 134.1C175.058 131.268 175.073 128.743 175.086 126.494C175.114 126.464 175.129 126.428 175.129 126.388C175.129 126.355 175.114 126.324 175.088 126.294C175.091 125.944 175.093 125.599 175.096 125.262C175.154 125.158 175.159 125.056 175.098 124.98C175.101 124.686 175.103 124.397 175.103 124.113C175.121 124.07 175.131 124.027 175.131 123.982C175.131 123.951 175.121 123.923 175.106 123.895C175.182 112.844 175.278 109.644 175.486 109.454C175.942 108.998 178.094 108.466 180.348 108.263C181.083 108.192 181.789 108.055 182.204 107.92C182.389 107.976 182.711 107.969 183.286 107.933C184.4 107.875 185.053 107.799 185.408 107.657C185.717 107.682 186.223 107.659 186.983 107.578C188.047 107.502 188.959 107.401 189.009 107.401C189.065 107.383 189.095 107.335 189.103 107.269C190.306 107.317 191.597 107.33 192.334 107.279C192.869 107.274 193.469 107.264 194.097 107.249C195.685 107.18 197.019 107.061 198.065 106.899C199.972 106.965 203.178 106.906 203.948 106.742C204.607 106.589 204.708 105.727 204.075 105.499C203.652 105.329 201.616 105.329 200.264 105.433C200.003 105.403 199.59 105.4 198.942 105.421C198.6 105.172 197.941 105.124 197.212 105.35C196.705 105.476 196.402 105.476 196.402 105.324C196.402 105.198 196.174 105.096 195.895 105.096C195.616 105.096 195.389 105.223 195.389 105.35C195.389 105.502 195.211 105.603 195.009 105.603C194.978 105.603 194.95 105.608 194.92 105.616C193.872 105.689 193.266 105.771 192.919 105.885C192.555 105.872 192.079 105.862 191.463 105.857C191.334 105.857 191.215 105.857 191.093 105.857C191.081 105.857 191.068 105.857 191.058 105.857C190.977 105.857 190.904 105.857 190.833 105.859C189.972 105.867 189.318 105.89 188.829 105.935C188.741 105.857 188.627 105.796 188.5 105.755C187.958 105.629 186.93 105.864 186.383 106.164C185.332 106.199 183.997 106.303 182.757 106.445C182.665 106.366 182.554 106.3 182.422 106.26C181.893 106.123 181.007 106.409 180.627 106.747C180.622 106.747 180.619 106.749 180.614 106.749L180.65 106.691L179.459 106.818C179.196 106.843 178.945 106.891 178.715 106.957C178.36 106.653 177.636 106.638 177.155 107.046C177.089 107.104 177.028 107.165 176.97 107.226C176.365 107.358 175.805 107.553 175.324 107.791C175.336 107.621 175.265 107.642 175.078 107.832C175.025 107.885 174.974 107.948 174.929 108.012C174.318 108.384 173.893 108.826 173.761 109.277C173.746 109.338 173.728 109.515 173.713 109.792C173.698 109.852 173.698 109.903 173.705 109.949C173.652 111.026 173.609 113.229 173.609 115.615L173.602 117.382C173.546 117.585 173.538 117.866 173.584 118.226C173.66 118.784 172.925 118.556 172.647 117.897C172.591 117.77 172.525 117.653 172.454 117.557C172.427 117.484 172.376 117.392 172.292 117.263C172.226 117.162 172.148 117.065 172.067 116.987C171.381 115.808 170.494 115.019 169.433 114.647C169.502 114.502 169.367 114.474 168.949 114.474C168.901 114.474 168.856 114.477 168.815 114.479C168.478 114.416 168.126 114.388 167.759 114.398C166.974 114.398 165.986 114.601 165.556 114.829C164.568 115.336 164.492 115.336 164.492 114.804C164.492 114.761 164.482 114.685 164.462 114.586C164.525 114.469 164.477 114.294 164.353 114.127C164.209 113.579 163.966 112.781 163.682 111.964C163.669 111.929 163.659 111.898 163.649 111.863C163.651 111.853 163.649 111.845 163.639 111.835C163.046 110.065 162.953 109.52 163.175 109.175C163.241 109.089 163.368 108.874 163.525 108.582C163.773 108.471 164.011 107.92 164.644 106.412C164.71 106.262 164.763 106.141 164.804 106.039C164.994 105.644 165.168 105.271 165.303 104.967C165.71 104.041 166.032 102.86 166.268 101.539C166.285 101.466 166.303 101.385 166.316 101.291C166.328 101.21 166.338 101.136 166.346 101.07C166.885 97.683 166.873 93.4896 166.26 90.2546C166.262 90.2166 166.265 90.1785 166.265 90.1354C166.265 89.7678 166.224 89.5625 166.093 89.4585C166.014 89.1213 165.928 88.7943 165.834 88.4875C165.67 87.945 165.526 87.4759 165.394 87.0627C165.389 87.0373 165.384 87.012 165.379 86.9917C165.343 86.8421 165.298 86.7103 165.244 86.5987C165.049 85.9928 164.887 85.5212 164.738 85.1206C164.73 85.0851 164.718 85.0522 164.7 85.0192C164.589 84.7251 164.482 84.4691 164.371 84.2181C164.34 84.142 164.274 83.9975 164.188 83.815C163.943 83.2724 163.646 82.6082 163.502 82.276C163.454 82.1645 163.401 82.0504 163.343 81.9313C163.363 81.8577 163.299 81.731 163.173 81.5155C163.132 81.4495 163.084 81.3887 163.034 81.3304C162.861 81.0109 162.651 80.6459 162.393 80.2199C162.4 80.2225 162.408 80.2225 162.413 80.2225C162.438 80.2478 162.337 80.0196 162.16 79.7408C162.094 79.6368 162.018 79.5455 161.937 79.472C161.752 79.1754 161.55 78.8534 161.324 78.4985C161.182 78.2779 161.051 78.0852 160.927 77.9128C160.916 77.8976 160.906 77.8799 160.894 77.8646C160.777 77.6999 160.671 77.568 160.572 77.4641C160.02 76.8353 159.663 76.8277 159.377 77.459C159.25 77.6061 159.192 77.7759 159.22 77.9001C159.151 78.1334 159.083 78.4047 159.02 78.7241C158.26 82.5778 155.525 85.8483 151.701 87.4709C151.404 87.6052 151.083 87.7548 150.804 87.8841C150.792 87.8537 150.675 87.9095 150.434 88.0286C150.308 88.0971 150.153 88.1731 150.004 88.2416C149.665 88.3481 149.1 88.4621 148.401 88.5686C148.12 88.5483 147.722 88.5103 147.345 88.4596C146.712 88.4089 146.256 88.4596 146.256 88.6117C146.256 88.7639 146.079 88.8653 145.876 88.8653C145.83 88.8653 145.787 88.8754 145.747 88.8906C144.321 89.0275 142.802 89.1188 141.571 89.1188C140.895 89.1188 140.264 89.1416 139.669 89.1822C139.532 89.1517 139.375 89.134 139.216 89.1441L138.669 89.1644C138.299 88.883 137.592 88.921 137.139 89.3723C137.086 89.4256 137.035 89.4788 136.987 89.532C136.589 89.6309 136.202 89.7298 136.151 89.778C136.144 89.7856 136.139 89.7932 136.134 89.7982C134.688 90.2622 133.538 90.9746 132.53 91.9837C131.466 93.0231 131.39 93.0485 130.833 92.5921C129.59 91.5577 126.632 91.4082 124.145 92.0496C124.079 92.0496 123.965 92.08 123.826 92.1383C123.137 92.3386 122.494 92.5997 121.944 92.9243C121.741 93.051 121.108 93.406 120.551 93.6848C119.26 94.3694 115.841 97.7413 114.726 99.3892C113.562 101.139 112.219 103.902 111.612 105.854C110.497 109.353 110.168 111.609 110.193 115.995C110.219 120.457 110.472 121.928 111.966 126.187C112.556 127.891 112.85 128.712 113.103 129.146C113.098 129.171 113.098 129.199 113.106 129.23C113.182 129.889 113.08 130.218 112.776 130.168C112.26 130.099 111.888 130.15 111.7 130.292C111.361 130.348 111.039 130.444 110.728 130.576C110.776 130.477 110.631 130.545 110.244 130.804C110.183 130.845 110.127 130.88 110.077 130.916C109.725 131.136 109.385 131.41 109.054 131.742C108.788 132.008 108.532 132.348 108.299 132.726C108.297 132.728 108.297 132.728 108.294 132.731C107.929 133.202 107.646 133.793 107.63 134.034C107.129 135.226 106.883 136.437 107.147 136.914C107.142 137.076 107.137 137.251 107.132 137.444C106.911 137.862 107.013 139.127 107.385 140.593C107.656 141.625 108.026 142.537 108.486 143.328C108.438 143.392 108.524 143.496 108.702 143.686C108.707 143.691 108.709 143.693 108.714 143.698C109.388 144.728 110.231 145.521 111.234 146.044C111.584 146.231 111.862 146.368 112.118 146.464C112.311 146.584 112.475 146.677 112.5 146.677C112.5 146.677 112.495 146.639 112.485 146.576C112.911 146.677 113.336 146.67 114.02 146.601C114.83 146.525 115.742 146.373 116.021 146.297C116.502 146.145 116.603 146.246 116.755 147.235C117.287 150.354 116.755 158.39 115.717 162.523C115.628 162.873 115.519 163.261 115.4 163.671C115.39 163.694 115.385 163.72 115.377 163.748C115.167 164.47 114.919 165.259 114.661 166.039L114.625 166.072H114.648C114.415 166.775 114.174 167.464 113.944 168.093C113.906 168.09 113.876 168.164 113.868 168.301C113.754 168.61 113.64 168.902 113.536 169.168C113.498 169.214 113.47 169.274 113.463 169.348C113.372 169.571 113.286 169.776 113.207 169.951C112.852 170.687 112.574 171.346 112.574 171.447C112.574 171.549 112.366 172.038 112.093 172.616C111.979 172.844 111.862 173.065 111.763 173.247C111.627 173.496 111.505 173.757 111.422 173.972C111.211 174.375 111.027 174.697 110.928 174.819C110.75 175.022 110.295 175.833 109.889 176.594C109.028 178.242 107.433 180.726 106.521 181.842C106.167 182.273 105.458 183.186 104.976 183.87C103.814 185.483 102.479 187.049 99.443 190.196C99.0833 190.469 98.706 190.665 98.4933 190.665C98.1641 190.665 98.0374 190.817 98.0881 191.121C98.1185 191.273 98.0931 191.471 98.0298 191.648C96.8674 192.837 95.4974 194.219 93.869 195.852C93.674 195.908 93.4081 195.933 93.1979 195.913C92.7927 195.862 92.7673 195.887 93.0459 196.09C93.2485 196.227 93.3144 196.318 93.2612 196.46C92.6129 197.109 91.9291 197.794 91.1972 198.524C82.5868 207.093 79.2439 210.592 77.5471 212.722C77.3445 213.001 76.6101 213.913 75.9263 214.75C75.3388 215.472 74.6398 216.433 73.9004 217.526C73.8801 217.516 73.8649 217.539 73.8573 217.589C73.523 218.086 73.1786 218.611 72.8367 219.151C72.7683 219.215 72.6924 219.308 72.6088 219.44C72.5328 219.564 72.4847 219.666 72.4644 219.744C72.2669 220.061 72.0694 220.383 71.8744 220.708C70.6588 222.685 68.2529 227.578 67.3919 229.733C67.2146 230.195 67.0399 230.671 66.8677 231.161C66.7714 231.113 66.7562 231.163 66.8221 231.29C66.584 231.972 66.3536 232.679 66.1332 233.399C66.0952 233.425 66.0649 233.453 66.0497 233.483C65.9939 233.574 66.0066 233.612 66.0775 233.587C65.1709 236.571 64.4213 239.771 63.9578 242.491C63.9553 242.506 63.9477 242.521 63.9477 242.534C63.9477 242.537 63.9477 242.537 63.9477 242.539C63.5349 244.968 63.3551 247.004 63.4995 248.14C63.4995 248.751 63.5045 249.493 63.5172 250.396C63.5222 250.918 63.5298 251.42 63.54 251.892H63.3652L63.5172 254.25C63.5628 254.899 63.6387 255.619 63.7426 256.382C63.7097 256.486 63.7375 256.651 63.7958 256.912C63.811 256.97 63.8261 257.028 63.8413 257.084C63.9756 257.984 64.1402 258.92 64.325 259.85C64.3326 259.919 64.3428 259.984 64.3529 260.055C64.4061 260.403 64.4745 260.697 64.5428 260.89C65.0215 263.078 65.5938 265.106 66.1256 266.292C66.3029 266.749 66.4802 267.23 66.4802 267.382C66.4802 267.522 67.0703 268.822 67.8477 270.397C67.9085 270.539 67.9744 270.688 68.0503 270.856C68.1972 271.201 68.3492 271.474 68.4682 271.632C68.6227 271.933 68.7695 272.217 68.9139 272.491C68.886 272.57 68.9316 272.719 69.0633 272.935C69.1596 273.087 69.2482 273.191 69.3216 273.249C69.6027 273.761 69.8813 274.235 70.17 274.709C70.1776 274.737 70.1903 274.763 70.2029 274.785C70.2232 274.818 70.2409 274.839 70.2612 274.859C70.8335 275.787 71.4666 276.717 72.3049 277.904C72.5252 278.211 72.9785 278.738 73.5635 279.379C73.6117 279.445 73.6699 279.516 73.7484 279.603C74.027 279.907 74.4069 280.338 74.6094 280.591C74.7209 280.728 74.8272 280.809 74.9285 280.837C76.8634 282.86 79.2743 285.233 80.2822 286.042C80.9584 286.59 82.2499 287.508 83.5364 288.382C83.6226 288.461 83.7087 288.522 83.777 288.547C84.8052 289.244 85.8056 289.896 86.4589 290.291C86.4843 290.319 86.507 290.35 86.5374 290.377C86.8211 290.661 86.9148 290.727 86.897 290.545C87.0541 290.631 87.1604 290.682 87.1959 290.682C87.3225 290.682 87.5758 290.859 87.753 291.062C87.8442 291.166 87.9784 291.262 88.1228 291.331C88.1911 291.399 88.2849 291.442 88.3862 291.442C88.4089 291.442 88.4292 291.44 88.452 291.435C88.4824 291.44 88.5102 291.442 88.5381 291.442C88.8167 291.442 89.0193 291.569 89.0193 291.696C89.0193 291.787 89.1003 291.858 89.2244 291.901C89.2776 291.929 89.3358 291.949 89.3991 291.949C89.4118 291.949 89.4245 291.947 89.4371 291.944C89.465 291.947 89.4954 291.949 89.5258 291.949C89.8043 291.949 90.0323 292.076 90.0323 292.203C90.0323 292.355 90.1842 292.456 90.3868 292.456C90.4197 292.456 90.4704 292.467 90.5261 292.479C90.6299 292.538 90.7439 292.591 90.868 292.634C91.0934 292.7 91.3112 292.773 91.4758 292.832C91.6404 292.903 91.8126 292.984 91.9823 293.065C92.2786 293.209 92.6027 293.354 92.9497 293.501C93.1548 293.701 93.2358 293.747 93.2308 293.615C93.8107 293.851 94.4514 294.084 95.1352 294.315C95.1124 294.345 95.0972 294.371 95.0972 294.383C95.0972 294.434 95.2745 294.485 95.4771 294.485C95.5151 294.485 95.5531 294.477 95.5885 294.464C96.5711 294.784 97.6297 295.091 98.7237 295.375C98.6908 295.461 98.7364 295.499 98.8706 295.499C98.9213 295.499 98.982 295.484 99.0479 295.458C99.8228 295.656 100.61 295.839 101.396 296.008C101.449 296.034 101.525 296.057 101.631 296.084C101.859 296.16 102.138 296.211 102.239 296.237C102.259 296.237 102.277 296.221 102.287 296.193C102.528 296.242 102.766 296.287 103.004 296.33C103.009 296.333 103.016 296.338 103.021 296.338C103.128 296.391 103.442 296.444 103.804 296.47C104.171 296.531 104.538 296.589 104.895 296.642C105.455 296.718 106.169 296.779 106.98 296.825C107.319 296.865 107.527 296.883 107.643 296.858C107.815 296.865 107.99 296.87 108.167 296.878C108.127 297 108.337 297.025 108.897 297.025C109.401 297.025 109.618 297.005 109.629 296.911C109.829 296.913 110.029 296.916 110.234 296.919C110.459 297 110.91 297.005 111.733 296.974C112.065 296.959 112.346 296.936 112.584 296.908C113.182 296.898 113.782 296.883 114.372 296.865C114.777 296.992 115.808 296.944 116.327 296.779C116.826 296.751 117.307 296.721 117.768 296.685C117.821 296.728 117.94 296.716 118.135 296.655C119.011 296.581 119.794 296.495 120.42 296.394C120.984 296.305 121.597 296.196 122.235 296.072C122.625 296.089 123.046 296.011 123.279 295.861C123.785 295.755 124.304 295.641 124.826 295.522C124.953 295.517 125.069 295.489 125.17 295.443C127.308 294.946 129.476 294.365 131.155 293.831C131.203 293.825 131.251 293.82 131.307 293.808C131.403 293.782 131.484 293.744 131.545 293.704C132.198 293.488 132.765 293.283 133.206 293.098C133.396 293.019 133.75 292.877 134.184 292.705C134.399 292.697 134.584 292.631 134.688 292.505C135.009 292.378 135.351 292.246 135.69 292.114C136.065 291.995 136.615 291.779 137.154 291.523C137.261 291.473 137.357 291.422 137.448 291.376C139.15 290.608 141.525 289.439 143.536 288.392C143.584 288.385 143.625 288.364 143.655 288.329C144.633 287.819 145.516 287.34 146.185 286.955C146.236 286.94 146.294 286.907 146.36 286.853C146.681 286.666 146.945 286.504 147.132 286.377C147.74 285.971 148.297 285.616 148.398 285.616C148.419 285.616 148.548 285.54 148.76 285.406C148.857 285.393 148.961 285.353 149.082 285.287C149.229 285.193 149.318 285.104 149.361 285.018C149.951 284.63 150.766 284.085 151.67 283.474C151.772 283.446 151.858 283.388 151.924 283.301C153.233 282.414 154.694 281.408 155.92 280.543C156.702 279.988 157.758 279.156 158.267 278.675C158.447 278.583 158.683 278.416 159.009 278.16C159.242 277.972 159.463 277.79 159.67 277.615C159.911 277.524 160.418 277.181 160.808 276.816C161.187 276.456 162.261 275.503 163.312 274.57C163.657 274.393 164.009 274.121 164.176 273.85C164.206 273.807 164.285 273.718 164.394 273.607C166.696 271.561 168.514 269.895 170.988 267.512L173.09 265.483V273.596C173.09 278.033 173.166 281.938 173.242 282.267C173.257 282.32 173.277 282.371 173.298 282.417C173.326 282.969 173.353 283.641 173.384 284.328C173.346 284.823 173.369 285.725 173.442 287.186C173.505 288.499 173.581 289.442 173.718 290.157C173.718 290.159 173.718 290.159 173.718 290.162C173.966 291.458 174.42 292 175.367 292.639C175.942 293.04 176.922 293.273 177.479 293.222C177.55 293.255 177.628 293.28 177.722 293.298C178.026 293.349 178.355 293.425 178.456 293.45C178.535 293.45 178.725 293.341 178.912 293.184C178.94 293.187 178.973 293.189 179.003 293.192C179.024 293.232 179.044 293.27 179.064 293.298C179.09 293.323 179.16 293.341 179.262 293.356C179.269 293.455 179.366 293.455 179.571 293.377C179.743 293.379 179.943 293.372 180.153 293.351C180.528 293.334 180.928 293.301 181.184 293.275C182.911 293.301 185.588 293.301 189.599 293.275C191.602 293.268 193.565 293.247 195.338 293.222C195.351 293.222 195.361 293.225 195.373 293.225C195.396 293.225 195.419 293.222 195.444 293.222C196.812 293.202 198.063 293.179 199.121 293.154C199.2 293.199 199.301 293.225 199.425 293.225C199.544 293.225 199.653 293.192 199.739 293.138C200.243 293.126 200.692 293.111 201.079 293.098C201.446 293.192 202.614 293.237 206.157 293.268C206.377 293.283 206.607 293.293 206.845 293.303C208.086 293.346 208.704 293.356 209.011 293.285C209.677 293.288 210.399 293.291 211.179 293.293C212.827 293.445 217.614 293.463 231.512 293.481C243.161 293.481 252.759 293.557 252.835 293.633C252.911 293.684 253.114 293.683 253.317 293.607C253.339 293.597 253.484 293.587 253.732 293.58C256.254 293.519 266.207 293.481 277.932 293.481H283.25V293.478C289.027 293.471 293.821 293.448 297.179 293.41V293.481H300.446C303.308 293.481 303.738 293.43 303.915 293.05C303.997 292.857 304.065 292.302 304.116 291.572C304.181 291.49 304.204 291.374 304.194 291.199C304.189 291.12 304.174 291.054 304.154 290.996C304.209 289.972 304.24 288.745 304.235 287.695C304.275 287.617 304.316 287.518 304.346 287.396C304.455 286.96 304.402 286.488 304.25 286.187C304.262 285.507 304.268 284.615 304.27 283.451C304.488 282.934 304.579 281.996 304.422 281.187C304.387 280.994 304.333 280.827 304.27 280.69C304.275 276.819 304.349 273.548 304.422 273.328C304.478 273.206 304.48 273.105 304.44 273.018C304.44 272.871 304.422 272.676 304.397 272.415C304.366 272.116 304.341 271.883 304.308 271.705C304.374 271.046 304.361 269.652 304.321 266.812C304.285 263.511 304.235 262.109 304.1 261.577C304.121 261.348 304.136 261.042 304.154 260.666C304.308 260.497 304.308 260.177 304.179 259.959C304.184 259.769 304.192 259.571 304.197 259.361C304.232 259.333 304.23 259.315 304.199 259.302C304.207 258.973 304.214 258.618 304.222 258.24C304.3 258.05 304.303 257.791 304.232 257.576C304.235 257.368 304.237 257.155 304.242 256.937L304.399 256.899L304.245 256.838C304.247 256.711 304.247 256.582 304.25 256.45L304.399 256.443L304.25 256.377C304.252 256.166 304.255 255.953 304.257 255.738C304.262 255.712 304.262 255.687 304.257 255.662C304.28 253.339 304.285 250.612 304.275 247.886C304.283 247.818 304.28 247.747 304.275 247.676C304.273 247.171 304.27 246.667 304.268 246.165C304.273 246.096 304.275 246.025 304.275 245.947C304.275 245.876 304.273 245.81 304.265 245.741C304.262 245.232 304.257 244.727 304.252 244.23C304.27 244.035 304.275 243.769 304.275 243.411C304.275 242.912 304.273 242.59 304.232 242.385C304.227 241.946 304.219 241.517 304.214 241.099C304.252 241.092 304.275 241.086 304.275 241.079C304.275 240.995 304.25 240.901 304.209 240.808C304.189 239.479 304.161 238.265 304.131 237.23C304.204 231.43 304.007 201.734 303.87 198.486C303.804 197.188 303.746 196.336 303.672 195.814C303.715 195.436 303.746 194.878 303.761 194.179C303.764 194.168 303.761 194.161 303.761 194.151C303.766 193.862 303.771 193.547 303.771 193.213C303.771 192.754 303.769 192.353 303.761 192.003C303.769 191.975 303.771 191.948 303.771 191.92C303.771 191.871 303.766 191.828 303.756 191.793C303.746 191.402 303.731 191.086 303.71 190.835C303.751 190.634 303.771 190.371 303.771 190.044C303.771 189.481 303.736 189.143 303.652 188.961C303.675 188.748 303.693 188.487 303.71 188.18C303.774 188.122 303.774 188.041 303.72 187.957C303.753 187.196 303.771 186.18 303.771 184.872L303.796 180.283L305.24 179.345C305.346 179.276 305.448 179.208 305.549 179.142C305.61 179.137 305.777 179.02 306.005 178.827C307.304 177.915 308.008 177.187 309.039 175.77C309.317 175.397 309.558 175.055 309.773 174.73C310.059 174.393 310.237 174.099 310.302 173.866C310.523 173.473 310.703 173.09 310.857 172.695C310.999 172.55 311.07 172.329 311.1 172.005C311.158 171.812 311.214 171.617 311.267 171.412C311.351 171.1 311.419 170.801 311.47 170.517C311.477 170.519 311.485 170.524 311.495 170.524C311.561 170.524 311.569 170.339 311.538 170.096C311.624 169.485 311.629 168.95 311.566 168.511C311.629 168.293 311.629 167.928 311.604 167.282ZM181.333 239.106C178.479 236.655 176.028 233.754 174.627 231.204C174.625 231.191 174.622 231.179 174.622 231.171C174.622 231.052 174.513 230.869 174.366 230.712C173.961 229.875 173.609 229.092 173.609 228.965C173.609 228.884 173.969 228.423 174.511 227.786C174.673 227.614 174.85 227.419 175.053 227.191C175.339 226.866 175.585 226.58 175.79 226.329C176.319 225.738 176.841 225.145 177.345 224.569C177.433 224.475 177.54 224.354 177.669 224.194C178.34 223.415 178.968 222.678 179.515 222.016C179.631 221.958 179.938 221.567 180.259 221.106C180.419 220.908 180.566 220.72 180.7 220.551C181.455 219.572 182.594 218.069 183.742 216.542C183.851 216.441 183.985 216.263 184.17 215.987C184.215 215.924 184.258 215.86 184.299 215.799C184.582 215.422 184.864 215.046 185.135 214.684C185.198 214.664 185.256 214.585 185.335 214.443C185.352 214.413 185.365 214.387 185.378 214.357C185.588 214.075 185.79 213.802 185.985 213.543C186.082 213.47 186.16 213.368 186.211 213.241C186.429 212.947 186.631 212.673 186.816 212.422C186.966 212.281 187.15 212.042 187.386 211.68C187.447 211.586 187.5 211.5 187.548 211.416C187.659 211.259 187.743 211.142 187.791 211.071C188.12 210.589 188.728 209.804 189.133 209.322C189.475 208.919 189.642 208.668 189.66 208.498C189.926 208.112 190.177 207.702 190.349 207.37C190.41 207.258 190.463 207.157 190.511 207.063C191.347 206.006 192.522 204.32 193.16 203.247C193.373 203.011 193.651 202.621 194.072 202.02C194.335 201.625 194.56 201.229 194.616 201.049C194.793 200.811 194.993 200.532 195.214 200.22C195.409 200.025 195.568 199.802 195.622 199.64C195.852 199.307 196.095 198.953 196.346 198.577C196.508 198.4 196.624 198.227 196.647 198.126C196.683 198.073 196.718 198.02 196.756 197.964C198.2 195.758 200.023 193.096 200.808 192.057C201.13 191.618 201.553 191.025 202.001 190.388C202.1 190.269 202.181 190.185 202.226 190.155C202.378 190.056 202.459 189.881 202.474 189.709C202.882 189.121 203.282 188.53 203.619 188.015C203.731 187.863 203.852 187.688 203.974 187.49C203.999 187.452 204.019 187.417 204.045 187.379C205.478 185.295 206.802 183.941 207.393 183.941C207.57 183.941 207.924 184.169 208.178 184.448C208.53 184.839 208.578 185.602 208.38 186.618C208.332 186.737 208.304 186.857 208.304 186.958C208.304 186.961 208.304 186.966 208.304 186.968C207.729 189.422 205.898 193.157 203.477 196.861C203.361 196.955 203.27 197.079 203.244 197.211C202.758 197.941 202.252 198.669 201.725 199.384C201.583 199.508 201.444 199.673 201.337 199.863L201.104 200.213C200.352 201.196 199.575 202.144 198.78 203.032C197.817 204.071 197.716 204.502 198.298 204.984C198.628 205.263 198.83 205.187 199.59 204.452C199.901 204.155 200.461 203.516 201.069 202.771C201.391 202.39 201.694 202.005 201.955 201.658C202.046 201.541 202.135 201.422 202.224 201.308C204.072 198.874 205.465 197.48 206.58 196.896C206.873 196.749 207.061 196.676 207.241 196.678C207.339 196.732 207.441 196.787 207.542 196.846C207.747 196.952 207.95 197.056 208.127 197.14C208.443 197.439 208.796 197.956 208.96 198.392C209.059 198.633 209.17 198.851 209.282 199.026C209.208 199.236 209.173 199.508 209.163 199.863C209.153 200.187 209.16 200.415 209.188 200.56C209.15 200.679 209.117 200.801 209.087 200.927C208.504 203.209 207.238 205.491 205.111 208.153C204.827 208.516 204.587 208.848 204.386 209.152C204.262 209.304 204.189 209.421 204.159 209.52C203.708 210.285 203.586 210.81 203.819 211.043C204.3 211.525 204.857 211.348 205.389 210.587C205.562 210.336 206.035 209.646 206.618 208.797C206.62 208.794 206.625 208.792 206.63 208.787C206.701 208.716 206.744 208.647 206.762 208.589C206.845 208.47 206.929 208.346 207.013 208.222C207.129 208.158 207.256 207.94 207.542 207.469C207.572 207.42 207.595 207.375 207.623 207.329C207.671 207.258 207.722 207.185 207.77 207.114C209.821 204.097 211.822 201.942 212.531 201.942C212.784 201.942 213.341 202.22 213.746 202.55C214 202.758 214.169 202.91 214.281 203.098C214.288 203.133 214.296 203.169 214.304 203.209C214.342 203.425 214.382 203.567 214.458 203.658C214.501 203.967 214.506 204.393 214.506 205.035C214.506 206.911 214.481 207.012 212.987 210.435C212.934 210.554 212.873 210.688 212.802 210.838C212.761 210.896 212.736 210.947 212.733 210.982C212.007 212.537 210.589 215.333 210.097 216.137C209.943 216.405 209.755 216.735 209.591 217.039C209.264 217.455 209.064 217.851 209.059 218.031C208.793 218.492 208.357 219.194 207.922 219.838C206.428 222.069 206.301 222.297 206.048 222.906C205.896 223.185 205.668 223.514 205.541 223.616C205.389 223.692 204.604 224.757 203.819 225.974C202.935 227.345 201.692 229.067 200.246 230.95C200.157 231.049 200.081 231.146 200.031 231.229C199.704 231.653 199.37 232.081 199.025 232.517C198.977 232.573 198.929 232.631 198.886 232.695C196.855 235.255 194.553 237.991 192.322 240.478C191.283 241.67 190.144 242.937 189.815 243.343C189.485 243.723 189.029 244.027 188.802 244.027C188.247 244.025 183.207 240.704 181.333 239.106ZM173.538 125.761C173.584 127.587 173.584 131.248 173.584 137.999C173.607 145.453 173.586 151.662 173.546 152.623C173.531 152.668 173.516 152.706 173.5 152.742C173.331 152.64 172.953 151.827 172.497 150.645C172.525 150.597 172.5 150.526 172.419 150.425C172.414 150.42 172.409 150.412 172.404 150.404C171.591 148.27 170.56 145.103 169.962 142.743C169.717 141.777 169.35 140.048 168.975 138.159C168.975 138.156 168.975 138.156 168.975 138.154C168.975 138.108 168.962 138.06 168.947 138.014C168.605 136.29 168.261 134.45 167.997 132.941C168.002 132.885 167.974 132.67 167.914 132.399C167.906 132.371 167.898 132.343 167.888 132.315C167.673 131.05 167.534 130.112 167.534 129.838C167.534 129.61 167.964 129.432 168.775 129.331C169.418 129.245 170.15 128.956 170.793 128.568C170.834 128.553 170.877 128.537 170.927 128.52C171.062 128.466 171.16 128.38 171.226 128.286C171.629 128 171.971 127.678 172.206 127.359C172.345 127.219 172.485 126.92 172.654 126.443C172.718 126.365 172.781 126.268 172.852 126.139C173.115 125.642 173.407 125.518 173.538 125.761ZM138.81 89.2582C138.798 89.2608 138.785 89.2608 138.772 89.2633C138.767 89.2557 138.76 89.2481 138.752 89.2405L138.81 89.2582ZM113.691 172.657C113.827 172.39 113.957 172.127 114.078 171.873C114.235 171.83 114.349 171.708 114.349 171.516C114.349 171.483 114.324 171.457 114.283 171.437C114.623 170.704 114.856 170.126 114.856 169.994C114.856 169.992 114.856 169.989 114.856 169.989C114.942 169.787 115.028 169.599 115.084 169.487C115.147 169.358 115.182 169.236 115.195 169.122C115.276 168.952 115.372 168.709 115.484 168.407C115.582 168.471 115.608 168.364 115.613 168.047C115.833 167.424 116.086 166.635 116.337 165.809C116.423 165.659 116.489 165.416 116.565 165.04C116.765 164.343 116.955 163.649 117.11 163.022C117.462 161.6 117.763 159.965 117.983 158.398C118.087 158.175 118.135 157.911 118.077 157.706C118.128 157.303 118.176 156.91 118.214 156.527C118.216 156.519 118.221 156.514 118.224 156.507C118.285 156.327 118.292 156.154 118.267 155.992C118.353 155.044 118.399 154.197 118.394 153.535C118.419 153.406 118.439 153.264 118.452 153.107C118.545 151.875 118.502 150.947 118.34 150.442C118.363 150.217 118.368 149.905 118.361 149.492C118.388 149.426 118.399 149.337 118.399 149.228C118.399 149.144 118.378 149.068 118.345 149C118.328 148.505 118.295 147.904 118.247 147.174C118.044 143.904 117.968 143.498 117.563 143.422C117.284 143.371 116.93 143.549 116.727 143.853C116.436 144.269 116.013 144.578 115.519 144.786C115.314 144.733 114.987 144.713 114.473 144.69C113.688 144.664 113.08 144.74 113.08 144.893C113.08 144.933 113.06 144.966 113.027 144.989C112.437 144.872 111.855 144.649 111.333 144.309C110.609 143.825 109.986 142.971 109.512 141.936C109.525 141.911 109.535 141.883 109.535 141.85C109.535 141.779 109.477 141.708 109.391 141.66C108.514 139.574 108.223 136.851 108.876 134.878C109.454 133.215 110.388 132.226 111.7 131.912C111.758 131.978 111.845 131.96 111.991 131.854C112.024 131.849 112.057 131.841 112.093 131.836C113.663 131.608 114.448 132.064 115.005 133.484C115.02 133.519 115.035 133.552 115.051 133.585C115.071 133.664 115.116 133.77 115.182 133.915C115.329 134.249 115.512 134.429 115.717 134.465C115.765 134.485 115.815 134.498 115.866 134.498C116.155 134.498 116.35 134.341 116.446 134.059C116.616 133.859 116.646 133.722 116.517 133.623C116.527 133.263 116.456 132.804 116.297 132.267C116.069 131.608 115.866 130.517 115.79 129.858C115.689 128.819 115.739 128.616 116.221 128.363C116.499 128.21 117.107 127.779 117.538 127.424C117.993 127.07 118.804 126.385 119.361 125.903C120.349 125.092 121.481 124.007 122.62 122.795C123.01 122.402 123.281 122.108 123.451 121.892C123.798 121.507 124.142 121.114 124.482 120.716C124.596 120.635 124.73 120.493 124.907 120.275C125.145 120.001 125.34 119.727 125.434 119.568C125.583 119.383 125.73 119.2 125.874 119.015C126.072 118.908 126.232 118.728 126.247 118.536C126.71 117.927 127.148 117.329 127.541 116.751C127.923 116.183 128.204 115.767 128.44 115.4C128.577 115.268 128.706 115.067 128.815 114.799C129.23 114.102 129.615 113.354 130.453 111.706C131.669 109.348 131.669 109.322 132.049 109.931C132.274 110.281 132.626 110.714 133.046 111.181C133.591 111.858 134.882 113.077 136.053 114.028C136.64 114.51 137.182 114.91 137.597 115.151C137.6 115.154 137.602 115.154 137.605 115.156C137.643 115.176 137.678 115.197 137.714 115.217C137.732 115.227 137.749 115.237 137.767 115.245C137.813 115.268 137.858 115.291 137.899 115.308C138.101 115.41 138.456 115.587 138.658 115.714C138.765 115.78 138.937 115.871 139.152 115.978C139.289 116.054 139.428 116.132 139.545 116.196C139.871 116.378 140.087 116.464 140.224 116.462C140.651 116.644 141.112 116.827 141.545 116.982C141.948 117.136 142.374 117.268 142.809 117.387C142.802 117.491 142.954 117.514 143.3 117.514C145.752 118.09 148.616 118.133 151.22 117.676C151.354 117.704 151.498 117.676 151.612 117.603C153.038 117.324 154.372 116.895 155.499 116.322C156.766 115.663 159.931 113.179 160.64 112.291C161.704 110.948 161.831 111.024 162.59 113.711C162.768 114.345 163.097 115.486 163.325 116.246C163.553 117.007 163.73 117.996 163.73 118.427C163.73 120.1 165.275 119.618 165.376 117.92C165.452 116.753 165.832 116.322 167.073 115.967C168.364 115.638 169.251 115.967 170.39 117.235C171.454 118.427 171.961 120.556 171.758 123.142C171.631 125.145 171.201 126.185 170.162 127.173C169.631 127.673 168.673 127.863 167.855 127.736C167.782 127.693 167.663 127.668 167.498 127.658C167.215 127.574 166.961 127.447 166.772 127.275C166.318 126.854 165.888 126.94 165.695 127.336C165.546 127.569 165.536 128.002 165.685 128.55C165.761 128.968 165.895 129.696 166.05 130.553C166.032 130.601 166.045 130.695 166.088 130.85C166.103 130.903 166.118 130.966 166.136 131.032C166.219 131.496 166.306 131.985 166.392 132.472C166.533 133.271 166.663 133.986 166.777 134.632C166.794 135.015 166.85 135.319 166.923 135.446C167.339 137.748 167.6 139.11 167.881 140.38C167.843 140.519 167.85 140.58 167.914 140.529C168.096 141.341 168.291 142.129 168.544 143.12C168.638 143.493 168.729 143.853 168.82 144.208C168.83 144.251 168.838 144.294 168.848 144.337C168.911 144.692 169.008 145.024 169.101 145.265C169.517 146.794 169.935 148.153 170.36 149.377C170.342 149.484 170.365 149.585 170.444 149.664C170.451 149.672 170.459 149.672 170.466 149.677C170.59 150.024 170.715 150.361 170.841 150.686C170.791 150.889 170.889 151.183 171.102 151.34C171.467 152.235 171.844 153.054 172.242 153.819C172.257 153.85 172.27 153.878 172.282 153.908C172.31 154.058 172.396 154.248 172.52 154.453C172.53 154.468 172.538 154.478 172.548 154.494C172.725 154.909 172.849 155.257 172.849 155.391C172.849 155.569 173.027 155.873 173.229 156.05C173.559 156.304 173.609 157.343 173.609 162.363V168.347L171.533 170.4C169.461 172.418 167.405 174.135 165.199 175.648C165.12 175.653 164.951 175.76 164.644 175.952C164.31 176.175 164.102 176.335 164.031 176.424C162.798 177.212 161.514 177.945 160.149 178.64C160.063 178.574 159.977 178.594 159.946 178.744C159.25 179.094 158.533 179.433 157.791 179.765C157.66 179.776 157.546 179.831 157.452 179.915C156.829 180.189 156.188 180.458 155.53 180.724C155.469 180.724 155.373 180.764 155.236 180.843C154.803 181.015 154.36 181.185 153.909 181.353C153.866 181.363 153.82 181.373 153.78 181.38C153.706 181.38 153.458 181.489 153.172 181.624C152.818 181.753 152.46 181.882 152.093 182.009C152.088 182.004 152.083 181.997 152.083 181.989C152.083 181.908 152.007 181.943 151.901 182.047C151.802 182.042 151.653 182.093 151.425 182.192C151.045 182.318 150.538 182.369 150.285 182.293C150.034 182.215 149.518 182.468 149.163 182.77C148.029 183.016 146.767 183.257 145.608 183.447C145.207 183.198 144.633 183.099 144.536 183.409C144.501 183.515 144.389 183.606 144.258 183.652C143.961 183.693 143.68 183.728 143.422 183.756C143.397 183.736 143.354 183.741 143.3 183.769C143.136 183.786 142.981 183.802 142.84 183.812C141.862 183.885 141.181 183.949 140.705 184.02C140.368 183.764 139.702 183.71 138.965 183.939C138.484 184.065 137.825 184.065 137.344 183.939C136.496 183.675 135.746 183.784 135.475 184.146C135.323 184.139 135.176 184.131 135.04 184.126C134.928 183.974 134.67 183.939 134.125 183.939C133.715 183.939 132.986 183.852 132.094 183.708C132.056 183.693 132.016 183.685 131.973 183.685C131.937 183.685 131.904 183.677 131.869 183.672C131.851 183.67 131.831 183.667 131.813 183.662C131.671 183.624 131.552 183.543 131.517 183.431C131.423 183.163 130.975 183.239 130.651 183.457C128.911 183.13 126.91 182.684 125.388 182.265C123.058 181.606 118.095 179.274 116.119 177.905C115.793 177.681 115.349 177.344 114.909 176.989C114.83 176.921 114.759 176.865 114.701 176.822C114.359 176.543 114.03 176.264 113.764 176.028L112.549 174.938L113.691 172.657ZM160.567 274.93C159.351 275.969 157.427 277.491 156.287 278.353C155.385 279.03 153.757 280.178 152.119 281.306C151.944 281.342 151.767 281.443 151.703 281.547C151.693 281.567 151.686 281.588 151.683 281.605C149.419 283.157 147.261 284.589 147.119 284.589C147.043 284.589 146.664 284.818 146.258 285.096C145.879 285.375 144.663 286.06 143.574 286.643C142.46 287.226 141.345 287.86 141.067 288.037C140.788 288.24 140.383 288.392 140.13 288.392C139.877 288.392 139.674 288.494 139.674 288.621C139.674 288.747 139.395 288.925 139.041 289.001C138.876 289.049 138.572 289.155 138.208 289.3C138.152 289.285 138.084 289.295 138.003 289.33C137.949 289.351 137.899 289.391 137.853 289.442C137.524 289.576 137.172 289.731 136.838 289.888C135.951 290.294 134.558 290.877 133.723 291.181C132.887 291.511 131.975 291.84 131.697 291.942C129.607 292.743 127.31 293.422 124.905 293.967C124.449 293.694 123.656 293.706 123.339 294.147C123.286 294.224 123.225 294.287 123.165 294.338C123.036 294.363 122.906 294.386 122.78 294.411C122.668 294.335 122.466 294.363 122.278 294.502L122.276 294.505C122.169 294.525 122.061 294.546 121.954 294.563C121.952 294.546 121.949 294.525 121.949 294.502C121.949 294.35 121.772 294.224 121.569 294.224C121.367 294.224 121.189 294.35 121.189 294.477C121.189 294.629 121.012 294.731 120.81 294.731C120.746 294.731 120.685 294.751 120.63 294.781C120.035 294.873 119.437 294.954 118.837 295.027C118.447 294.766 117.821 294.695 117.619 295.035C117.576 295.098 117.538 295.146 117.507 295.177C117.472 295.179 117.439 295.184 117.403 295.187C117.386 295.151 117.373 295.086 117.365 294.984C117.365 294.731 117.315 294.705 117.213 294.933C117.163 295.086 116.935 295.238 116.732 295.238C116.687 295.238 116.644 295.248 116.606 295.263C114.906 295.413 113.207 295.491 111.541 295.491C110.084 295.491 108.365 295.4 106.714 295.248C106.686 295.24 106.658 295.238 106.628 295.238C106.425 295.238 106.248 295.136 106.248 295.035C106.248 294.908 105.513 294.832 104.602 294.832C103.589 294.857 102.854 294.731 102.753 294.553C102.576 294.262 101.986 294.302 101.583 294.507C101.578 294.505 101.57 294.505 101.563 294.502C99.1568 293.945 96.447 293.184 95.9912 292.956C95.7126 292.829 94.6996 292.423 93.712 292.069C91.5593 291.257 88.8243 289.939 88.6217 289.635C88.5457 289.508 88.2671 289.406 87.9885 289.406C87.7353 289.406 87.5074 289.305 87.5074 289.178C87.5074 289.052 87.3048 288.899 87.0769 288.798C86.8945 288.742 86.6717 288.643 86.4133 288.506C86.0613 288.271 85.6941 288.048 85.3776 287.885C84.8685 287.553 84.2759 287.137 83.6048 286.64C83.4959 286.539 83.3972 286.468 83.3187 286.428C83.2148 286.349 83.1085 286.27 83.0021 286.189C77.965 282.394 74.1485 278.327 71.2894 273.65C71.2792 273.607 71.2564 273.569 71.2185 273.533C71.0285 273.221 70.8462 272.907 70.6664 272.587C70.6968 272.516 70.636 272.39 70.4916 272.169C70.4334 272.078 70.365 271.994 70.2941 271.921C69.4888 270.437 68.767 268.896 68.1288 267.281C68.1238 267.263 68.1187 267.246 68.1111 267.225C68.106 267.218 68.101 267.208 68.0959 267.2C68.0326 267.04 67.9693 266.88 67.9085 266.718C67.3767 265.324 66.8449 263.929 66.7182 263.625C66.2624 262.434 65.1988 256.526 65.0468 254.245L64.948 252.711C64.9531 252.069 64.9506 251.266 64.9455 250.264C64.9455 249.493 64.9506 248.753 64.9582 248.081C65.0012 247.724 65.0367 247.29 65.0721 246.765C65.2063 244.618 65.6115 241.969 66.1586 239.378C66.2219 239.284 66.2447 239.19 66.2168 239.101C66.5941 237.349 67.0348 235.63 67.4982 234.122C67.6553 233.934 67.754 233.663 67.754 233.356C67.754 233.349 67.749 233.344 67.749 233.336C68.0529 232.418 68.3618 231.597 68.6657 230.922C68.8683 230.491 69.0203 230.035 69.0203 229.883C69.0203 229.754 69.4052 228.909 69.9547 227.779H69.9573C69.9826 227.804 70.0839 227.703 70.1599 227.551C70.1979 227.495 70.1852 227.447 70.1371 227.406C71.335 224.97 73.1381 221.511 73.68 220.705C74.1106 220.046 74.5917 219.362 74.7183 219.159C74.9209 218.844 75.1362 218.52 75.3591 218.193C75.4148 218.145 75.4781 218.071 75.5541 217.967C75.6579 217.833 75.7313 217.701 75.782 217.579C76.4734 216.588 77.228 215.569 77.9777 214.618C78.1651 214.545 78.3221 214.359 78.3727 214.121C78.9678 213.383 79.5503 212.699 80.0872 212.111C80.3911 211.781 81.3028 210.716 82.1132 209.778C82.9236 208.815 86.3678 205.341 89.7866 202.02C92.0962 199.774 93.7879 198.131 95.0896 196.858C95.3859 196.59 95.6594 196.321 95.8772 196.088C96.2191 195.753 96.5306 195.446 96.8168 195.162C96.9181 195.139 97.0346 195.063 97.2068 194.921C97.3537 194.774 97.4904 194.584 97.5689 194.414C98.0172 193.966 98.4021 193.575 98.7592 193.208C98.9061 193.162 99.0124 193.055 99.0707 192.886C99.5696 192.366 100.036 191.864 100.575 191.276C100.783 191.083 100.962 190.893 101.071 190.736C102.355 189.349 103.553 187.992 104.635 186.707C104.766 186.593 104.875 186.466 104.933 186.35C105.26 185.957 105.577 185.571 105.881 185.196C105.924 185.145 105.962 185.097 105.997 185.052C106.21 184.785 106.415 184.527 106.612 184.271C106.686 184.263 106.747 184.182 106.833 184.022C106.856 183.984 106.871 183.951 106.886 183.916C107.818 182.701 108.59 181.604 109.163 180.676C109.315 180.447 109.467 180.219 109.542 180.143C109.872 179.814 111.568 176.873 111.568 176.619C111.568 176.239 111.999 176.264 112.252 176.67C112.43 176.961 113.827 178.092 114.901 178.87C115.375 179.266 115.917 179.636 116.102 179.636C116.254 179.636 116.38 179.738 116.38 179.864C116.38 179.991 116.684 180.219 117.089 180.346C117.092 180.346 117.097 180.349 117.099 180.349C118.221 180.995 120.425 182.08 122.018 182.757C122.086 182.861 122.205 182.932 122.332 182.932C122.359 182.932 122.385 182.929 122.41 182.922C122.661 183.026 122.891 183.115 123.091 183.186C123.689 183.393 124.378 183.601 125.117 183.804C125.132 183.888 125.181 183.946 125.269 183.946C125.32 183.946 125.383 183.926 125.449 183.895C125.988 184.04 126.551 184.179 127.118 184.314C127.098 184.428 127.25 184.453 127.624 184.453C127.655 184.453 127.68 184.451 127.708 184.451C130.258 185.026 132.77 185.432 133.692 185.381C133.999 185.455 134.444 185.508 135.045 185.546C135.982 185.597 137.805 185.597 139.046 185.546C140.312 185.495 141.857 185.444 142.515 185.419C142.533 185.419 142.548 185.419 142.566 185.419C143.285 185.455 144.519 185.27 145.21 185.008C145.392 185.039 145.673 185.044 145.985 185.013C146.423 184.965 146.666 184.927 146.813 184.813C147.221 184.793 147.834 184.692 148.609 184.517C148.776 184.512 148.925 184.476 149.029 184.418C149.956 184.195 151.07 183.883 152.314 183.5C152.511 183.546 152.666 183.497 152.704 183.378C152.949 183.3 153.2 183.221 153.453 183.137C154.041 182.95 154.671 182.727 155.33 182.476C155.431 182.493 155.53 182.483 155.606 182.428C155.674 182.395 155.72 182.354 155.748 182.311C156.477 182.024 157.234 181.705 157.999 181.365C158.376 181.322 158.82 181.119 159.042 180.889C159.364 180.739 159.686 180.584 160.007 180.427C160.086 180.404 160.182 180.371 160.291 180.321C160.402 180.265 160.491 180.209 160.562 180.156C161.013 179.93 161.456 179.7 161.894 179.469C161.937 179.459 161.983 179.433 162.036 179.395C162.623 179.081 163.196 178.764 163.738 178.447C164.001 178.295 164.383 178.044 164.837 177.735C164.819 177.851 164.897 177.808 165.13 177.61C165.219 177.539 165.28 177.468 165.32 177.397C165.784 177.073 166.29 176.708 166.799 176.335C166.86 176.302 166.929 176.257 167.004 176.191C167.04 176.163 167.091 176.122 167.156 176.072C168.405 175.146 169.595 174.221 170.069 173.782C170.162 173.696 170.299 173.572 170.461 173.425C170.993 172.986 171.406 172.629 171.705 172.342C171.862 172.21 172.019 172.078 172.171 171.957L173.614 170.714V198.704L173.589 226.668L172.196 227.809C171.411 228.443 170.601 229.127 170.373 229.33C170.332 229.366 170.287 229.406 170.244 229.444C170.15 229.51 170.051 229.599 169.95 229.7C168.215 231.204 165.052 233.752 162.978 235.339C160.471 237.24 152.392 242.717 151.582 243.097C151.551 243.112 151.508 243.135 151.458 243.16C151.404 242.963 151.371 242.995 151.245 243.274C150.916 243.457 150.419 243.738 149.933 244.032C149.249 244.438 147.932 245.148 147.021 245.604C146.109 246.061 145.349 246.517 145.299 246.618C145.248 246.745 145.071 246.821 144.893 246.821C144.716 246.821 144.134 247.024 143.577 247.303C143.095 247.531 142.688 247.724 142.325 247.891C142.262 247.82 142.232 247.835 142.219 247.942C140.809 248.591 140.155 248.844 138.945 249.28C138.57 249.412 138.203 249.537 137.835 249.661C137.818 249.663 137.795 249.671 137.762 249.686C136.432 250.13 135.156 250.515 133.966 250.835C133.576 250.66 132.983 250.738 132.586 251.134C132.565 251.154 132.545 251.174 132.525 251.195C132.16 251.281 131.811 251.357 131.469 251.425C131.066 251.157 130.458 251.042 130.357 251.362C130.306 251.514 130.104 251.641 129.901 251.641C129.807 251.641 129.726 251.679 129.663 251.74C128.934 251.841 128.28 251.894 127.723 251.894C127.414 251.894 127.169 251.912 126.966 251.948C126.515 251.709 125.517 251.689 123.671 251.844C123.557 251.854 123.461 251.899 123.388 251.968C118.659 251.496 114.99 249.973 112.427 247.458C110.73 245.784 109.844 244.187 109.743 242.641C109.692 241.905 109.54 241.601 109.236 241.55C109.071 241.52 108.942 241.553 108.864 241.634C108.497 241.664 108.37 241.834 108.324 242.286C108.302 242.445 108.299 242.57 108.317 242.676C108.264 243.383 108.522 244.823 108.932 245.607C108.975 245.691 109.041 245.797 109.127 245.919C109.152 245.962 109.18 246.002 109.211 246.038C109.277 246.137 109.347 246.223 109.416 246.291C109.735 246.687 110.171 247.171 110.647 247.673C110.723 247.818 110.87 248.013 111.059 248.218C111.31 248.487 111.558 248.682 111.688 248.728C111.829 248.867 111.971 249.004 112.11 249.136C112.242 249.339 112.736 249.77 113.202 250.12C113.579 250.432 113.86 250.627 113.972 250.627C114.174 250.627 114.352 250.728 114.352 250.83C114.352 251.002 114.661 251.215 115.395 251.519C115.752 251.702 116.023 251.806 116.218 251.834C116.679 251.998 117.234 252.186 117.895 252.401C118.229 252.513 118.601 252.622 119.001 252.723C119.014 252.794 119.148 252.843 119.439 252.908C119.639 252.962 119.804 252.969 119.926 252.941C122.278 253.446 125.135 253.735 126.48 253.542C126.832 253.499 127.348 253.443 127.87 253.39H127.873C128.675 253.365 129.501 253.294 129.721 253.22C132.654 252.873 137.592 251.595 140.307 250.449C140.738 250.267 141.247 250.056 141.718 249.866C141.72 249.866 141.723 249.866 141.725 249.866C142.027 249.866 142.138 249.828 142.103 249.709C142.391 249.592 142.65 249.486 142.84 249.41C143.338 249.204 144.506 248.639 145.833 247.972C145.917 248.005 146.023 247.942 146.208 247.785C148.021 246.869 150.032 245.82 151.007 245.272C151.275 245.277 151.44 245.173 151.447 245.014C151.506 244.976 151.554 244.945 151.577 244.925C151.731 244.79 152.106 244.552 152.488 244.324C152.514 244.311 152.539 244.299 152.559 244.281C152.655 244.223 152.752 244.167 152.843 244.114C153.139 243.954 153.491 243.746 153.884 243.503C153.995 243.447 154.079 243.396 154.137 243.345C155.274 242.635 156.733 241.652 158.328 240.534C158.336 240.529 158.343 240.524 158.351 240.519C158.855 240.164 159.374 239.799 159.898 239.421C159.957 239.433 160.002 239.444 160.035 239.449C160.111 239.449 160.114 239.393 160.065 239.302C163.902 236.546 168.091 233.339 170.312 231.384C170.345 231.371 170.373 231.364 170.393 231.364C170.456 231.364 170.474 231.323 170.456 231.257C170.636 231.097 170.801 230.948 170.95 230.806C171.482 230.299 172.014 229.918 172.115 229.995C172.186 230.03 172.434 230.42 172.725 230.95C172.708 231.026 172.758 231.123 172.875 231.262C172.89 231.282 172.908 231.298 172.923 231.315C172.984 231.43 173.042 231.546 173.103 231.668C173.308 232.066 173.551 232.497 173.794 232.895C173.799 232.918 173.804 232.935 173.812 232.961C173.868 233.192 173.979 233.326 174.09 233.366C174.28 233.658 174.458 233.909 174.597 234.076C174.911 234.459 175.202 234.809 175.476 235.141C175.724 235.499 175.954 235.775 176.096 235.879C177.887 237.993 178.902 239.015 180.32 240.212C180.538 240.399 180.776 240.595 181.019 240.792C181.08 240.919 181.174 241.026 181.283 241.074C181.333 241.092 181.374 241.102 181.414 241.112C181.855 241.462 182.316 241.817 182.784 242.164C182.797 242.243 182.81 242.255 182.827 242.194C183.073 242.377 183.319 242.557 183.562 242.732C183.587 242.77 183.62 242.808 183.663 242.848C183.772 242.968 183.878 243.021 183.97 243.021C184.539 243.421 185.086 243.792 185.575 244.103C186.084 244.509 186.419 244.725 186.644 244.745C186.821 244.841 186.981 244.922 187.11 244.978C187.49 245.156 187.794 245.358 187.794 245.46C187.794 245.916 181.462 253.826 177.309 258.618C175.106 261.128 165.356 270.965 163.862 272.182C163.251 272.648 161.783 273.891 160.567 274.93ZM310.11 168.549C310.105 169.394 309.976 170.24 309.74 171.074C309.722 171.095 309.71 171.115 309.705 171.135C309.705 171.163 309.697 171.201 309.692 171.239C308.755 174.35 306.314 177.223 303.12 178.741C302.006 179.248 300.892 179.806 300.613 179.958C300.593 179.968 300.565 179.981 300.535 179.991C300.428 180.022 300.236 180.062 299.985 180.113C299.405 180.207 298.529 180.288 297.65 180.338C295.624 180.44 295.067 180.389 294.535 180.034C294.057 179.722 293.943 179.497 294.039 179.002C294.092 178.954 294.107 178.893 294.082 178.825C294.305 178.072 295.135 176.784 295.498 176.612C295.624 176.561 296.08 176.231 296.511 175.851C296.966 175.471 298.41 174.609 299.727 173.924C301.044 173.265 302.285 172.606 302.462 172.454C302.918 172.099 302.842 171.566 302.259 171.389C302.252 171.386 302.244 171.386 302.236 171.384C302.079 171.275 301.95 171.26 301.862 171.333C301.738 171.333 301.598 171.346 301.439 171.374C301.469 171.285 301.413 171.285 301.294 171.364C301.272 171.376 301.254 171.396 301.234 171.414C300.487 171.584 299.324 172.035 297.293 172.91C296.103 173.417 293.494 173.873 292.811 173.696C291.975 173.493 291.823 172.986 292.279 171.871C292.416 171.538 292.613 171.209 292.859 170.884C293.066 170.631 293.325 170.344 293.603 170.055C294.816 168.902 296.726 167.784 299.319 166.694C299.539 166.683 299.633 166.65 299.623 166.567C299.846 166.475 300.071 166.384 300.304 166.293C300.968 166.034 301.55 165.712 301.95 165.403C302.105 165.426 302.191 165.335 302.262 165.124C302.419 164.957 302.507 164.8 302.507 164.67C302.507 164.113 301.165 164.113 299.899 164.67C299.165 164.975 298.177 165.406 297.696 165.608C297.437 165.73 297.113 165.882 296.807 166.029C296.782 166.024 296.756 166.022 296.733 166.014C296.47 165.933 296.422 165.953 296.622 166.121C296.432 166.212 296.26 166.298 296.126 166.369C295.903 166.473 295.508 166.602 295.075 166.706C294.94 166.643 294.763 166.59 294.53 166.546C294.049 166.47 293.391 166.445 293.087 166.521C292.788 166.62 292.393 166.549 292.21 166.402C291.104 165.307 291.671 163.481 293.694 161.603C295.705 159.719 298.982 158.312 301.502 158.142C301.616 158.139 301.74 158.137 301.874 158.129C301.879 158.129 301.884 158.129 301.89 158.127C302.148 158.122 302.399 158.127 302.634 158.155C306.129 158.535 309.016 161.476 309.852 165.507C309.963 166.06 310.039 166.399 310.135 166.61C310.138 166.886 310.145 167.218 310.153 167.619C310.123 167.829 310.11 168.128 310.11 168.549Z" fill="#0E1316"/>
<path d="M203.366 147.937C203.32 147.861 203.204 147.788 203.065 147.74C202.915 147.641 202.735 147.552 202.53 147.481C202.325 147.413 202.163 147.377 202.014 147.372C201.841 147.202 201.72 147.179 201.72 147.329C201.72 147.352 201.727 147.38 201.74 147.405C201.586 147.451 201.426 147.545 201.234 147.692C201.099 147.709 200.874 147.851 200.732 148.039C200.573 148.234 200.527 148.394 200.601 148.609C200.545 149.025 200.775 149.421 201.289 149.661C201.948 149.991 202.708 149.814 203.341 149.205C203.7 148.845 203.703 148.409 203.407 148.044C203.404 148.014 203.391 147.978 203.366 147.937Z" fill="#0E1316"/>
<path d="M226.46 148.009C226.427 147.968 226.399 147.932 226.361 147.889C225.923 147.387 225.034 147.319 224.381 147.666C224.292 147.707 224.206 147.752 224.132 147.813C223.816 148.047 223.709 148.138 223.861 148.092C223.38 148.62 223.428 148.883 224.031 149.487C224.614 150.07 225.551 149.994 226.361 149.284C226.642 149.015 226.771 148.81 226.753 148.589C226.771 148.374 226.655 148.176 226.46 148.009Z" fill="#0E1316"/>
<path d="M214.99 147.938H214.945L214.914 147.912C214.623 147.676 214.281 147.537 213.937 147.476C213.699 147.428 213.483 147.418 213.347 147.453C212.665 147.522 212.101 147.925 212.101 148.571C212.101 148.599 212.106 148.627 212.108 148.658C212.08 148.868 212.184 149.187 212.404 149.408C212.511 149.514 212.65 149.596 212.789 149.646C213.43 150.019 214.081 149.836 214.886 149.028L215.519 148.419L214.962 147.955L214.99 147.938Z" fill="#0E1316"/>
<path d="M225.525 130.191V130.099C226.746 130 226.939 129.777 226.538 129.303C226.235 128.948 225.855 128.898 224.006 129.024C222.816 129.1 221.651 129.151 221.423 129.176C221.342 129.176 221.271 129.194 221.208 129.227C220.4 129.232 219.511 129.235 218.586 129.227C216.036 129.217 214.398 129.225 213.352 129.285C211.627 129.166 205.577 129.159 202.498 129.245C202.373 129.207 202.191 129.204 201.923 129.225C201.492 129.25 201.087 129.174 201.036 129.022C200.94 128.735 199.512 129.126 198.81 129.509C198.653 129.514 198.496 129.516 198.342 129.519C197.886 129.46 197.311 129.42 196.693 129.397C196.333 129.24 195.862 129.169 195.642 129.301C195.49 129.402 195.389 129.326 195.389 129.199C195.389 129.047 194.857 128.92 194.123 128.92C193.439 128.92 192.856 129.047 192.856 129.174C192.856 129.326 192.679 129.427 192.477 129.427C192.337 129.427 192.213 129.511 192.147 129.628C191.917 129.686 191.772 129.755 191.742 129.833C191.666 130.061 191.641 130.34 191.742 130.467C191.884 130.703 197.79 130.698 199.031 130.475C199.803 130.434 200.317 130.378 200.626 130.305C201.297 130.431 203.019 130.442 207.418 130.442C211.898 130.442 213.6 130.431 214.246 130.3C214.585 130.3 214.935 130.297 215.269 130.289C216.383 130.289 219.144 130.239 221.423 130.239L225.525 130.191Z" fill="#0E1316"/>
<path d="M204.734 113.001C204.739 113.065 204.746 113.136 204.754 113.209C204.81 113.83 204.929 114.32 205.114 114.598C205.494 115.182 205.671 115.207 208.127 115.308C212.245 115.427 213.856 115.486 214.486 115.4L218.336 115.417C218.576 115.463 218.933 115.483 219.447 115.483C219.967 115.483 220.321 115.468 220.554 115.427L221.651 115.433C227.475 115.483 232.262 115.534 232.287 115.585C232.318 115.6 233.037 115.615 234.136 115.623V115.737H245.38C247.593 115.737 249.379 115.734 250.817 115.727C250.827 115.732 250.838 115.737 250.85 115.737C250.863 115.737 250.876 115.732 250.888 115.727C252.337 115.719 253.433 115.706 254.259 115.684C254.722 115.76 255.735 115.739 257.891 115.661C260.068 115.559 262.702 115.483 263.715 115.483C264.25 115.483 264.635 115.473 264.911 115.445C265.331 115.45 265.761 115.455 266.197 115.458C271.414 115.483 272.351 115.433 272.63 115.103C273.06 114.571 272.832 109.931 272.25 107.497C272.115 106.929 271.953 106.384 271.766 105.859C271.741 105.626 271.652 105.403 271.525 105.233C271.151 104.313 270.697 103.463 270.155 102.688C270.183 102.591 270.145 102.49 270.044 102.376C269.948 102.254 269.836 102.168 269.727 102.115C269.092 101.308 268.355 100.586 267.522 99.9521C267.522 99.8887 267.375 99.7619 267.056 99.5109C266.643 99.1991 266.43 99.085 266.369 99.1585C265.364 98.5475 264.242 98.0379 263.004 97.6348C262.722 97.541 262.421 97.4472 262.107 97.3559C261.993 97.2571 261.813 97.1683 261.56 97.1024C261.18 97.0264 260.8 96.8235 260.724 96.7221C260.648 96.5954 260.319 96.5446 260.015 96.6461C259.939 96.6638 259.873 96.6917 259.813 96.7221C259.787 96.7221 259.767 96.7247 259.744 96.7272C258.63 96.461 257.513 96.2328 256.564 96.0807C256.543 95.9717 256.437 95.9514 256.257 96.0224C256.201 95.9843 256.136 95.9615 256.065 95.9615C255.862 95.9615 255.659 95.8348 255.609 95.6826C255.485 95.3302 254.702 95.4671 254.236 95.7714C252.651 95.5559 252.433 95.4012 252.322 94.3871C252.327 94.3263 252.319 94.2629 252.304 94.202C252.284 93.9941 252.266 93.7533 252.241 93.4769C252.177 92.7468 252.084 92.0572 251.962 91.4005C252.008 91.3651 252.028 91.322 252.013 91.2712C252.005 91.2332 251.967 91.1927 251.916 91.1597C251.873 90.9467 251.83 90.7388 251.782 90.5335C251.889 90.5107 251.871 90.4523 251.742 90.3712C251.61 89.8388 251.461 89.3292 251.283 88.8374C251.278 88.774 251.253 88.7081 251.21 88.6447C251.124 88.4114 251.03 88.1858 250.931 87.9602C250.987 87.9069 250.99 87.8309 250.952 87.7218C250.886 87.59 250.797 87.5013 250.711 87.4759C250.101 86.2159 249.305 85.0649 248.292 83.9443C246.494 81.9667 243.202 80.4963 240.543 80.4963C240.105 80.4963 239.836 80.514 239.677 80.5799C239.629 80.5774 239.581 80.5749 239.53 80.5723C238.396 80.514 237.727 80.4937 237.269 80.5394C237.193 80.5242 237.074 80.5242 236.927 80.5394C236.557 80.2605 235.85 80.2985 235.4 80.7498C235.339 80.8107 235.281 80.8715 235.227 80.9298C234.516 81.1453 233.759 81.4242 233.171 81.7132C232.064 82.2355 229.656 84.3195 228.99 85.255C228.853 85.3716 228.8 85.4933 228.82 85.577C228.818 85.5897 228.815 85.6049 228.815 85.6176C228.815 85.7443 228.613 86.1753 228.334 86.5303C228.083 86.8877 227.84 87.3796 227.61 87.9652C227.554 88.0235 227.544 88.0565 227.572 88.0616C227.053 89.423 226.625 91.2586 226.435 93.0459C226.247 94.6102 226.164 95.2136 225.969 95.4671C225.751 95.5914 225.371 95.6167 224.611 95.6573C224.153 95.6725 223.662 95.7257 223.269 95.7993C223.163 95.7156 223.018 95.6497 222.838 95.6066C222.246 95.4494 221.289 95.7359 220.894 96.0883C220.625 96.1314 220.349 96.1745 220.078 96.2151C219.792 96.2582 219.513 96.3013 219.24 96.3469C219.189 96.3418 219.131 96.3469 219.065 96.3672C219.055 96.3722 219.042 96.3748 219.032 96.3799C218.971 96.39 218.913 96.4001 218.852 96.4103C218.751 96.3976 218.683 96.3342 218.683 96.2404C218.683 96.0883 218.505 95.9615 218.303 95.9615C218.1 95.9615 217.923 96.0629 217.923 96.1644C217.923 96.2658 217.594 96.4939 217.163 96.6461C217.024 96.6993 216.892 96.7627 216.776 96.8311C215.841 97.0542 215 97.3052 214.228 97.5968C214.15 97.6044 214.036 97.65 213.871 97.7337C213.866 97.7362 213.863 97.7388 213.858 97.7413C213.603 97.8452 213.357 97.9543 213.116 98.0684C213.142 97.9391 213.053 97.9974 212.782 98.2154C212.767 98.2281 212.754 98.2408 212.739 98.256C211.754 98.7605 210.875 99.3614 210.022 100.092C210.055 100.043 210.065 100.015 210.047 100.015C209.971 100.015 209.464 100.472 208.933 101.03C208.401 101.587 207.996 102.044 208.072 102.044C208.072 102.044 208.074 102.041 208.077 102.041C207.307 102.941 206.727 103.811 206.274 104.749C206.266 104.759 206.256 104.769 206.248 104.782C205.99 105.099 205.954 105.165 206.154 105.01C205.927 105.514 205.734 106.042 205.564 106.607C204.962 108.651 204.658 111.026 204.719 112.702C204.726 112.819 204.729 112.918 204.734 113.001ZM206.246 110.2C206.377 109.789 206.517 109.284 206.633 108.77C206.669 108.615 206.707 108.463 206.745 108.313C206.79 108.25 206.821 108.177 206.836 108.085C206.836 108.047 206.836 108.007 206.838 107.964C207.33 106.161 208.011 104.64 208.933 103.362C208.973 103.327 209.004 103.281 209.026 103.23C210.115 101.765 211.533 100.624 213.352 99.7416C213.405 99.7214 213.461 99.6985 213.521 99.6681C213.544 99.6554 213.567 99.6428 213.587 99.6326C214.848 99.047 216.297 98.5805 217.958 98.2129C218.009 98.2205 218.047 98.2103 218.077 98.185C218.559 98.081 219.055 97.9822 219.572 97.8934C220.964 97.6399 222.357 97.3864 222.687 97.3357C222.725 97.3281 222.757 97.3204 222.79 97.3103C223.117 97.2723 223.73 97.2292 224.404 97.1911C224.586 97.2241 224.847 97.2342 225.219 97.2342C226.442 97.2342 227.002 97.2089 227.293 96.8311C227.306 96.8134 227.318 96.7931 227.331 96.7703C227.526 96.4661 227.589 95.9666 227.673 95.1325C227.774 94.1184 227.926 92.8761 228.053 92.369C228.104 92.1003 228.129 91.8949 228.129 91.7428C228.248 91.3473 228.306 90.9112 228.301 90.5588C228.658 89.8185 229.144 88.6244 229.337 87.9526C229.403 87.8233 229.474 87.6787 229.547 87.5241C229.681 87.2351 229.828 86.9511 229.965 86.6951C230.335 86.155 230.831 85.5212 231.32 84.9888C232.257 83.9747 234.207 82.8845 236.106 82.276C236.147 82.2634 236.18 82.2507 236.218 82.238C237.314 82.0758 239.479 81.9642 240.773 81.9845C240.968 82.0301 241.201 82.0732 241.45 82.1011C243.172 82.3039 245.957 83.7237 247.274 85.0674C248.376 86.1931 249.556 88.3582 250.144 90.2495C250.121 90.2977 250.131 90.3383 250.177 90.3636C250.237 90.5639 250.291 90.7591 250.336 90.9493C250.513 91.6845 250.691 93.231 250.691 94.3719C250.716 96.1973 250.792 96.5015 251.223 96.7297C251.501 96.8565 253.324 97.2114 255.274 97.4903C258.519 97.9391 261.147 98.5881 263.867 99.5769C263.847 99.696 263.971 99.7721 264.191 99.7721C264.257 99.7721 264.336 99.7822 264.414 99.7974C266.227 100.604 267.919 102.056 269.282 104.031C270.396 105.629 271.333 109.584 271.358 112.651V113.97L265.989 113.995C263.026 114.02 260.418 114.071 260.215 114.096C260.013 114.122 259.587 114.172 259.283 114.198C258.891 114.198 258.541 114.198 258.265 114.198C257.052 114.198 256.5 114.238 256.209 114.391C255.87 114.337 255.383 114.302 254.695 114.276C254.601 114.254 254.512 114.249 254.431 114.269C253.557 114.243 252.393 114.233 250.853 114.228C250.85 114.228 250.848 114.226 250.845 114.226C250.843 114.226 250.84 114.228 250.838 114.228C249.412 114.223 247.667 114.226 245.527 114.226H234.131V114.358C234.014 114.35 233.895 114.342 233.774 114.337C233.71 114.269 233.622 114.226 233.523 114.226C233.32 114.226 233.118 114.074 233.067 113.922C232.961 113.605 232.295 113.802 231.897 114.129C231.363 114.084 230.682 114.046 229.952 114.023C228.59 113.975 227.865 113.954 227.481 114.005C224.821 113.982 221.562 114.02 220.154 114.114C219.898 114.023 219.589 113.972 219.24 113.972C218.852 113.972 218.566 114.015 218.361 114.122C217.12 113.998 213.932 113.924 211.817 113.957C211.293 113.914 210.698 113.876 210.072 113.845C208.046 113.744 206.324 113.617 206.223 113.541C206.096 113.491 206.02 113.212 206.02 112.933C206.02 112.801 205.992 112.677 205.944 112.588C206.19 111.835 206.317 110.816 206.246 110.2Z" fill="#0E1316"/>
<path d="M234.414 92.2879C234.48 92.506 234.556 92.7139 234.645 92.9116C234.66 93.2082 234.776 93.4288 234.895 93.4288C234.903 93.4288 234.908 93.4263 234.913 93.4237C235.111 93.7483 235.346 94.0373 235.62 94.2959C235.648 94.3263 235.67 94.3567 235.706 94.3922C235.797 94.4835 235.898 94.5596 235.992 94.6128C236.554 95.0362 237.243 95.3531 238.061 95.5585C238.276 95.6066 238.585 95.6218 238.935 95.6117C239.036 95.6193 239.135 95.6269 239.226 95.6345C239.593 95.6624 239.763 95.6675 239.798 95.5432C240.074 95.5078 240.353 95.4621 240.614 95.4063C240.725 95.4621 240.87 95.4216 241.095 95.2872C241.313 95.2238 241.505 95.1528 241.657 95.0768C242.389 94.7167 242.966 94.1869 243.369 93.5404C243.407 93.4973 243.455 93.4187 243.506 93.3021C243.508 93.297 243.508 93.2944 243.511 93.2894C243.838 92.6708 244.012 91.9583 244.012 91.1978C244.012 88.4723 241.921 86.5759 239.115 86.6165C238.892 86.5886 238.661 86.6038 238.459 86.6571C238.454 86.6571 238.448 86.6571 238.441 86.6596C237.988 86.7154 237.56 86.8244 237.162 86.9816C237.225 86.7762 237.152 86.8193 236.845 87.0652C236.787 87.1109 236.742 87.1514 236.701 87.192C235.903 87.6053 235.26 88.2188 234.83 88.9439C234.711 88.954 234.642 89.058 234.642 89.2456C234.642 89.2633 234.642 89.2785 234.645 89.2938C234.217 90.1963 234.103 91.2434 234.414 92.2879ZM236.126 89.8515C236.134 89.8465 236.139 89.8338 236.146 89.8135C236.435 89.2608 236.926 88.8121 237.633 88.4596C237.808 88.3734 237.985 88.2746 238.147 88.1808C238.438 88.1351 238.79 88.1047 239.153 88.1047C239.667 88.1047 240.14 88.1808 240.563 88.3202C241.133 88.5839 241.764 89.0529 242.116 89.5245C242.318 89.778 242.495 90.5386 242.495 91.1724C242.495 92.1105 242.369 92.4401 241.812 92.9471C241.406 93.3021 240.773 93.7331 240.393 93.8852C238.317 94.7725 235.835 93.3021 235.835 91.1724C235.832 90.6806 235.931 90.242 236.126 89.8515Z" fill="#0E1316"/>
<path d="M152.05 127.067C152.088 127.09 152.144 127.105 152.21 127.118C152.969 127.323 153.83 127.105 154.562 126.479C154.876 126.279 155.097 126.068 155.119 125.909C155.745 125.163 155.748 124.638 155.201 123.852C154.828 123.302 154.59 123.044 154.218 122.924C154.152 122.871 154.071 122.838 153.985 122.838C153.782 122.838 153.605 122.737 153.605 122.585C153.605 122.179 152.668 122.281 152.491 122.712C152.415 122.914 152.212 123.092 152.035 123.092C151.832 123.092 151.503 123.32 151.25 123.599C151.103 123.774 151.009 123.888 150.992 123.964C150.434 124.727 150.407 125.736 151.199 126.514C151.45 126.776 151.741 126.958 152.05 127.067Z" fill="#0E1316"/>
<path d="M144.458 141.68C144.762 142.258 145.397 142.892 146.182 143.397C146.271 143.46 146.365 143.521 146.461 143.577C147.173 143.99 147.411 144.142 147.489 144.046C147.813 144.162 148.188 144.233 148.583 144.261C148.707 144.292 148.847 144.312 148.994 144.312C149.221 144.312 149.378 144.297 149.48 144.259C149.979 144.221 150.465 144.124 150.88 143.975C150.921 143.975 150.959 143.97 150.994 143.955C151.05 143.932 151.095 143.904 151.139 143.871C151.301 143.797 151.45 143.716 151.577 143.625C152.21 143.174 152.714 142.629 153.073 142.033C153.225 141.83 153.349 141.561 153.443 141.255C153.674 140.623 153.747 139.964 153.643 139.312C153.608 138.955 153.529 138.636 153.4 138.402C153.256 138.141 153.185 138.037 153.104 138.101C152.82 137.916 152.509 138.113 152.324 138.608C152.288 138.666 152.258 138.775 152.235 138.917C152.184 139.145 152.157 139.414 152.162 139.718C152.162 140.276 152.01 140.986 151.858 141.29C151.529 141.898 149.832 142.862 149.097 142.862C148.186 142.862 146.793 142.101 146.084 141.214C145.767 140.821 145.448 140.56 145.169 140.433C145.175 140.425 145.167 140.423 145.142 140.42C144.764 140.263 144.458 140.357 144.313 140.732C144.265 140.854 144.255 140.993 144.275 141.14C144.275 141.323 144.334 141.511 144.458 141.68Z" fill="#0E1316"/>
<path d="M131.481 133.748C131.707 133.955 132.036 134.108 132.507 134.247C132.887 134.348 133.368 134.399 133.545 134.348C133.748 134.298 134.026 134.247 134.178 134.247C134.356 134.247 134.812 133.968 135.191 133.613C135.764 133.068 135.997 132.381 135.898 131.767C135.928 131.413 135.668 130.928 135.141 130.621C135.045 130.568 134.941 130.515 134.837 130.467C134.791 130.447 134.748 130.426 134.703 130.409C134.406 130.284 134.11 130.201 133.925 130.216C133.902 130.216 133.887 130.218 133.869 130.218C132.454 130.119 131.063 131.085 131.063 132.498C131.063 132.825 131.099 133.086 131.183 133.304C131.177 133.448 131.286 133.6 131.481 133.748Z" fill="#0E1316"/>
</svg>
