<svg width="20" height="20" viewBox="0 0 20 20" fill="none" xmlns="http://www.w3.org/2000/svg">
<path d="M12.0966 19.2308C11.8545 19.2308 11.6145 19.1672 11.399 19.0441L10.0837 18.2869C10.0324 18.256 9.96668 18.256 9.91538 18.2869L8.60003 19.0441C8.38044 19.1713 8.14041 19.2308 7.90432 19.2308C7.42006 19.2308 6.9481 18.9784 6.68951 18.5311L5.93021 17.2137C5.89936 17.1624 5.84407 17.1296 5.78445 17.1296H4.27623C3.5046 17.1296 2.87667 16.5017 2.87667 15.7301V14.2218C2.87667 14.1624 2.84392 14.1049 2.79262 14.0761L1.47315 13.3168C1.14887 13.1301 0.916971 12.8284 0.8206 12.4672C0.724233 12.106 0.773457 11.7285 0.960121 11.4042L1.71734 10.0889C1.74819 10.0376 1.74819 9.97189 1.71734 9.92058L0.960121 8.60524C0.574312 7.93623 0.806211 7.07847 1.47521 6.69281L2.79259 5.93351C2.84389 5.90266 2.87665 5.84737 2.87665 5.78775V4.27953C2.87665 3.50789 3.50457 2.87997 4.27621 2.87997H5.78443C5.84387 2.87997 5.90142 2.84722 5.93019 2.79591L6.68949 1.47644C6.87616 1.15216 7.17791 0.920269 7.53908 0.823897C7.90026 0.727526 8.27775 0.776755 8.60205 0.963418L9.9174 1.72063C9.9687 1.75148 10.0344 1.75148 10.0857 1.72063L11.401 0.963418C12.07 0.57761 12.9278 0.809509 13.3135 1.47851L14.0728 2.79589C14.1036 2.84719 14.1589 2.87995 14.2185 2.87995H15.7267C16.4984 2.87995 17.1263 3.50787 17.1263 4.27951V5.78772C17.1263 5.84717 17.1591 5.90472 17.2104 5.93349L18.5298 6.69279C19.1988 7.0786 19.4287 7.93634 19.0449 8.60522L18.2877 9.92056C18.2569 9.97186 18.2569 10.0375 18.2877 10.0889L19.0449 11.4042C19.4307 12.0732 19.1988 12.931 18.5298 13.3166L17.2104 14.0759C17.1591 14.1068 17.1263 14.1621 17.1263 14.2217V15.7299C17.1263 16.5015 16.4984 17.1295 15.7267 17.1295H14.2185C14.1591 17.1295 14.1015 17.1622 14.0728 17.2135L13.3135 18.533C13.1268 18.8573 12.825 19.0892 12.4639 19.1855C12.3408 19.2166 12.2178 19.2308 12.0966 19.2308H12.0966ZM9.99946 17.0331C10.2416 17.0331 10.4837 17.0946 10.6992 17.2198L12.0145 17.977C12.0637 18.0057 12.113 18.0016 12.1438 17.9934C12.1747 17.9853 12.2176 17.9647 12.2464 17.9154L13.0057 16.596C13.2541 16.163 13.7198 15.8942 14.2184 15.8942H15.7267C15.819 15.8942 15.8949 15.8183 15.8949 15.7259V14.2177C15.8949 13.7191 16.1638 13.2532 16.5967 13.005L17.9162 12.2457C17.9962 12.1986 18.0248 12.0959 17.9777 12.0138L17.2207 10.6965C16.9723 10.2657 16.9723 9.73012 17.2207 9.29907L17.9779 7.98373C18.025 7.90365 17.9964 7.79896 17.9163 7.75182L16.5969 6.99252C16.1639 6.74415 15.8951 6.27843 15.8951 5.77981V4.27159C15.8951 4.17921 15.8192 4.10329 15.7268 4.10329H14.2186C13.72 4.10329 13.2541 3.83447 13.0059 3.40154L12.2466 2.08415C12.1994 2.00408 12.0968 1.97548 12.0147 2.02263L10.6993 2.77984C10.2685 3.02821 9.73293 3.02821 9.30188 2.77984L7.98653 2.02263C7.93731 1.99386 7.88808 1.99802 7.85723 2.00616C7.82638 2.01431 7.7834 2.03493 7.75463 2.08416L6.99533 3.40363C6.74696 3.83658 6.28124 4.10538 5.78261 4.10538H4.27439C4.18202 4.10538 4.1061 4.18129 4.1061 4.27367V5.78189C4.1061 6.28052 3.83728 6.7464 3.40435 6.99461L2.08696 7.75391C2.00689 7.80105 1.97829 7.90366 2.02544 7.98581L2.78265 9.30115C3.03102 9.73203 3.03102 10.2676 2.78265 10.6986L2.02544 12.014C1.99666 12.0632 2.00082 12.1124 2.00897 12.1433C2.01712 12.1741 2.03774 12.2171 2.08696 12.2459L3.40643 13.0052C3.83938 13.2535 4.10819 13.7193 4.10819 14.2179V15.7261C4.10819 15.8185 4.1841 15.8944 4.27648 15.8944H5.7847C6.28333 15.8944 6.74921 16.1632 6.99742 16.5962L7.75671 17.9135C7.80386 17.9936 7.90646 18.0222 7.98862 17.9751L9.30396 17.2178C9.51524 17.0946 9.75738 17.0331 9.9995 17.0331L9.99946 17.0331Z" fill="#005778"/>
<path d="M12.6241 6.50284L13.4947 7.37342L7.37302 13.4951L6.50244 12.6245L12.6241 6.50284Z" fill="#005778"/>
<path d="M7.67874 9.51468C7.20886 9.51468 6.73881 9.33616 6.3799 8.97705C5.66373 8.26088 5.66373 7.09532 6.3799 6.37915C6.72672 6.03234 7.18845 5.84152 7.67874 5.84152C8.16925 5.84152 8.63096 6.03235 8.97758 6.37915C9.69375 7.09532 9.69375 8.26088 8.97758 8.97705C8.61846 9.33409 8.14857 9.51468 7.67874 9.51468ZM7.67874 7.07278C7.51669 7.07278 7.36486 7.13639 7.24995 7.24923C7.01389 7.48529 7.01389 7.86903 7.24995 8.1049C7.48601 8.34096 7.86975 8.34096 8.10562 8.1049C8.34168 7.86884 8.34168 7.4851 8.10562 7.24923C7.99261 7.13639 7.84078 7.07278 7.67873 7.07278H7.67874Z" fill="#005778"/>
<path d="M12.3228 14.154C11.8529 14.154 11.3829 13.9755 11.0239 13.6164C10.3078 12.9002 10.3078 11.7346 11.0239 11.0185C11.7401 10.3023 12.9057 10.3023 13.6218 11.0185C14.338 11.7346 14.338 12.9002 13.6218 13.6164C13.2625 13.9736 12.7927 14.154 12.3228 14.154H12.3228ZM12.3228 11.7121C12.1668 11.7121 12.0129 11.7715 11.894 11.8885C11.6579 12.1246 11.6579 12.5083 11.894 12.7442C12.13 12.9803 12.5138 12.9803 12.7497 12.7442C12.9857 12.5081 12.9857 12.1244 12.7497 11.8885C12.6325 11.7717 12.4788 11.7121 12.3228 11.7121H12.3228Z" fill="#005778"/>
</svg>
