<svg width="368" height="100" viewBox="0 0 368 100" fill="none" xmlns="http://www.w3.org/2000/svg">
<rect width="368" height="100" rx="10" fill="#ECF1FF"/>
<mask id="mask0_1060_125" style="mask-type:alpha" maskUnits="userSpaceOnUse" x="0" y="0" width="368" height="100">
<rect width="368" height="100" rx="10" fill="#EBFFE4"/>
</mask>
<g mask="url(#mask0_1060_125)">
<circle cx="314.5" cy="-5.5" r="128.5" fill="#E4EBFF"/>
</g>
<mask id="path-4-outside-1_1060_125" maskUnits="userSpaceOnUse" x="284" y="26" width="45" height="48" fill="black">
<rect fill="white" x="284" y="26" width="45" height="48"/>
<path d="M323.466 61.116C323.166 61.0388 322.499 60.9712 321.948 60.9712C321.397 60.9712 320.952 60.9423 320.952 60.894C320.952 60.8554 322.219 59.5622 323.766 58.0277C325.506 56.2905 326.724 54.9877 326.985 54.6016C327.691 53.5304 328 52.517 328 51.2721C328 48.6856 326.424 46.4659 323.94 45.5587C323.292 45.3175 323.098 45.2885 321.967 45.2885C320.894 45.2885 320.624 45.3271 320.082 45.5201C318.729 46.0027 318.622 46.0992 313.701 50.9922C311.12 53.5593 308.984 55.6632 308.964 55.6632C308.935 55.6632 308.916 52.6521 308.916 48.9752V42.2967L308.655 41.8625C308.52 41.6212 307.417 40.4631 306.219 39.2953L304.034 37.1721V35.2902V33.3986L304.42 33.2732C304.856 33.1284 305.426 32.559 305.639 32.0572C305.735 31.8255 305.774 31.2947 305.774 30.1656C305.774 28.4284 305.668 28.0231 305.126 27.5212C304.546 26.9808 304.798 27.0001 296.909 27.0001C289.001 27.0001 289.368 26.9808 288.778 27.5212C288.246 27.9941 288.179 28.303 288.179 30.1463C288.179 31.6904 288.198 31.9027 288.382 32.2791C288.604 32.7424 289.01 33.0898 289.561 33.2828L289.919 33.4083V35.2419V37.066L287.512 39.4883C285.23 41.7852 285.104 41.93 285.037 42.345C285.008 42.5863 284.988 47.6047 285.008 53.4918C285.037 63.2488 285.056 64.2429 285.201 64.6675C285.849 66.4819 287.251 67.8716 289.049 68.4603C289.532 68.6244 290.103 68.6437 294.84 68.6919L300.089 68.7402L300.234 69.1648C300.476 69.8693 300.93 70.5449 301.704 71.2977C302.661 72.2338 303.811 72.8128 305.049 72.9769C305.213 72.9962 309.341 73.0059 314.233 72.9962L323.127 72.9866L323.756 72.7549C327.207 71.5293 328.812 68.1901 327.594 64.7544C327.024 63.1427 325.274 61.5985 323.466 61.116ZM319.251 47.0257C320.101 46.4949 320.875 46.2729 321.919 46.2633C323.369 46.2633 324.375 46.6589 325.448 47.6723C326.618 48.7532 327.207 50.4614 326.956 51.9862C326.83 52.739 326.434 53.733 326.076 54.1963C325.825 54.5148 320.256 60.1026 320.179 60.1026C320.15 60.1026 318.555 58.5295 316.621 56.5994C314.697 54.6788 313.121 53.0671 313.121 53.0285C313.121 52.8741 318.787 47.3249 319.251 47.0257ZM289.716 32.2598C289.204 31.9799 289.146 31.7676 289.146 30.1463V28.6504L289.484 28.303L289.832 27.9652H296.889C304.72 27.9652 304.391 27.9362 304.672 28.5925C304.769 28.8241 304.807 29.3163 304.807 30.1752C304.807 31.7097 304.682 32.0765 304.082 32.3081C303.918 32.366 301.307 32.4046 296.899 32.4046C291.108 32.3949 289.929 32.3756 289.716 32.2598ZM285.994 42.6828C286.052 42.4126 286.458 41.959 288.198 40.2508C289.368 39.0926 290.46 37.9538 290.605 37.7222L290.886 37.2879V35.3288V33.3697H296.918H302.961L302.99 35.3288C303.009 36.9115 303.048 37.3362 303.173 37.5678C303.27 37.7222 304.362 38.8707 305.619 40.1253C307.882 42.374 307.901 42.3933 307.901 42.8082V43.2136H296.986C289.368 43.2136 286.042 43.1846 286.004 43.1074C285.965 43.0495 285.965 42.8565 285.994 42.6828ZM285.955 52.5749V44.1787H296.928H307.901V50.4614V56.7538L306.721 57.9698C305.571 59.1472 305.194 59.6876 304.817 60.7106L304.711 60.9712H295.333H285.955V52.5749ZM299.78 67.1092V67.7268L295.12 67.7172C291.62 67.7075 290.286 67.6786 289.793 67.5821C288.111 67.2443 286.69 65.98 286.197 64.378C286.11 64.1271 286.023 63.4708 285.984 62.9303L285.926 61.9363H294.153H302.381L301.636 62.6891C300.437 63.8858 299.78 65.4492 299.78 67.1092ZM313.411 66.9548V71.9732L309.187 71.9636C306.045 71.9539 304.836 71.925 304.498 71.8285C303.328 71.51 302.013 70.458 301.433 69.3771C300.66 67.9198 300.64 66.0862 301.385 64.6096C301.762 63.8858 302.874 62.8145 303.647 62.4478C304.672 61.9653 304.972 61.9363 309.351 61.9363H313.411V66.9548ZM312.638 60.9712H305.851L305.909 60.7299C306.054 60.1412 306.818 59.263 309.448 56.6283C310.985 55.0938 312.28 53.8296 312.329 53.8296C312.425 53.8296 319.338 60.7203 319.386 60.8651C319.415 60.9423 317.414 60.9712 312.638 60.9712ZM323.243 71.8381C322.857 71.9443 321.803 71.9732 318.584 71.9732H314.427L314.446 66.9837L314.475 61.9846L318.458 61.9556C322.876 61.9267 323.098 61.946 324.22 62.4864C325.631 63.1716 326.695 64.6578 326.956 66.2888C327.343 68.6919 325.67 71.1915 323.243 71.8381Z"/>
</mask>
<path d="M323.466 61.116C323.166 61.0388 322.499 60.9712 321.948 60.9712C321.397 60.9712 320.952 60.9423 320.952 60.894C320.952 60.8554 322.219 59.5622 323.766 58.0277C325.506 56.2905 326.724 54.9877 326.985 54.6016C327.691 53.5304 328 52.517 328 51.2721C328 48.6856 326.424 46.4659 323.94 45.5587C323.292 45.3175 323.098 45.2885 321.967 45.2885C320.894 45.2885 320.624 45.3271 320.082 45.5201C318.729 46.0027 318.622 46.0992 313.701 50.9922C311.12 53.5593 308.984 55.6632 308.964 55.6632C308.935 55.6632 308.916 52.6521 308.916 48.9752V42.2967L308.655 41.8625C308.52 41.6212 307.417 40.4631 306.219 39.2953L304.034 37.1721V35.2902V33.3986L304.42 33.2732C304.856 33.1284 305.426 32.559 305.639 32.0572C305.735 31.8255 305.774 31.2947 305.774 30.1656C305.774 28.4284 305.668 28.0231 305.126 27.5212C304.546 26.9808 304.798 27.0001 296.909 27.0001C289.001 27.0001 289.368 26.9808 288.778 27.5212C288.246 27.9941 288.179 28.303 288.179 30.1463C288.179 31.6904 288.198 31.9027 288.382 32.2791C288.604 32.7424 289.01 33.0898 289.561 33.2828L289.919 33.4083V35.2419V37.066L287.512 39.4883C285.23 41.7852 285.104 41.93 285.037 42.345C285.008 42.5863 284.988 47.6047 285.008 53.4918C285.037 63.2488 285.056 64.2429 285.201 64.6675C285.849 66.4819 287.251 67.8716 289.049 68.4603C289.532 68.6244 290.103 68.6437 294.84 68.6919L300.089 68.7402L300.234 69.1648C300.476 69.8693 300.93 70.5449 301.704 71.2977C302.661 72.2338 303.811 72.8128 305.049 72.9769C305.213 72.9962 309.341 73.0059 314.233 72.9962L323.127 72.9866L323.756 72.7549C327.207 71.5293 328.812 68.1901 327.594 64.7544C327.024 63.1427 325.274 61.5985 323.466 61.116ZM319.251 47.0257C320.101 46.4949 320.875 46.2729 321.919 46.2633C323.369 46.2633 324.375 46.6589 325.448 47.6723C326.618 48.7532 327.207 50.4614 326.956 51.9862C326.83 52.739 326.434 53.733 326.076 54.1963C325.825 54.5148 320.256 60.1026 320.179 60.1026C320.15 60.1026 318.555 58.5295 316.621 56.5994C314.697 54.6788 313.121 53.0671 313.121 53.0285C313.121 52.8741 318.787 47.3249 319.251 47.0257ZM289.716 32.2598C289.204 31.9799 289.146 31.7676 289.146 30.1463V28.6504L289.484 28.303L289.832 27.9652H296.889C304.72 27.9652 304.391 27.9362 304.672 28.5925C304.769 28.8241 304.807 29.3163 304.807 30.1752C304.807 31.7097 304.682 32.0765 304.082 32.3081C303.918 32.366 301.307 32.4046 296.899 32.4046C291.108 32.3949 289.929 32.3756 289.716 32.2598ZM285.994 42.6828C286.052 42.4126 286.458 41.959 288.198 40.2508C289.368 39.0926 290.46 37.9538 290.605 37.7222L290.886 37.2879V35.3288V33.3697H296.918H302.961L302.99 35.3288C303.009 36.9115 303.048 37.3362 303.173 37.5678C303.27 37.7222 304.362 38.8707 305.619 40.1253C307.882 42.374 307.901 42.3933 307.901 42.8082V43.2136H296.986C289.368 43.2136 286.042 43.1846 286.004 43.1074C285.965 43.0495 285.965 42.8565 285.994 42.6828ZM285.955 52.5749V44.1787H296.928H307.901V50.4614V56.7538L306.721 57.9698C305.571 59.1472 305.194 59.6876 304.817 60.7106L304.711 60.9712H295.333H285.955V52.5749ZM299.78 67.1092V67.7268L295.12 67.7172C291.62 67.7075 290.286 67.6786 289.793 67.5821C288.111 67.2443 286.69 65.98 286.197 64.378C286.11 64.1271 286.023 63.4708 285.984 62.9303L285.926 61.9363H294.153H302.381L301.636 62.6891C300.437 63.8858 299.78 65.4492 299.78 67.1092ZM313.411 66.9548V71.9732L309.187 71.9636C306.045 71.9539 304.836 71.925 304.498 71.8285C303.328 71.51 302.013 70.458 301.433 69.3771C300.66 67.9198 300.64 66.0862 301.385 64.6096C301.762 63.8858 302.874 62.8145 303.647 62.4478C304.672 61.9653 304.972 61.9363 309.351 61.9363H313.411V66.9548ZM312.638 60.9712H305.851L305.909 60.7299C306.054 60.1412 306.818 59.263 309.448 56.6283C310.985 55.0938 312.28 53.8296 312.329 53.8296C312.425 53.8296 319.338 60.7203 319.386 60.8651C319.415 60.9423 317.414 60.9712 312.638 60.9712ZM323.243 71.8381C322.857 71.9443 321.803 71.9732 318.584 71.9732H314.427L314.446 66.9837L314.475 61.9846L318.458 61.9556C322.876 61.9267 323.098 61.946 324.22 62.4864C325.631 63.1716 326.695 64.6578 326.956 66.2888C327.343 68.6919 325.67 71.1915 323.243 71.8381Z" fill="#005778"/>
<path d="M323.466 61.116C323.166 61.0388 322.499 60.9712 321.948 60.9712C321.397 60.9712 320.952 60.9423 320.952 60.894C320.952 60.8554 322.219 59.5622 323.766 58.0277C325.506 56.2905 326.724 54.9877 326.985 54.6016C327.691 53.5304 328 52.517 328 51.2721C328 48.6856 326.424 46.4659 323.94 45.5587C323.292 45.3175 323.098 45.2885 321.967 45.2885C320.894 45.2885 320.624 45.3271 320.082 45.5201C318.729 46.0027 318.622 46.0992 313.701 50.9922C311.12 53.5593 308.984 55.6632 308.964 55.6632C308.935 55.6632 308.916 52.6521 308.916 48.9752V42.2967L308.655 41.8625C308.52 41.6212 307.417 40.4631 306.219 39.2953L304.034 37.1721V35.2902V33.3986L304.42 33.2732C304.856 33.1284 305.426 32.559 305.639 32.0572C305.735 31.8255 305.774 31.2947 305.774 30.1656C305.774 28.4284 305.668 28.0231 305.126 27.5212C304.546 26.9808 304.798 27.0001 296.909 27.0001C289.001 27.0001 289.368 26.9808 288.778 27.5212C288.246 27.9941 288.179 28.303 288.179 30.1463C288.179 31.6904 288.198 31.9027 288.382 32.2791C288.604 32.7424 289.01 33.0898 289.561 33.2828L289.919 33.4083V35.2419V37.066L287.512 39.4883C285.23 41.7852 285.104 41.93 285.037 42.345C285.008 42.5863 284.988 47.6047 285.008 53.4918C285.037 63.2488 285.056 64.2429 285.201 64.6675C285.849 66.4819 287.251 67.8716 289.049 68.4603C289.532 68.6244 290.103 68.6437 294.84 68.6919L300.089 68.7402L300.234 69.1648C300.476 69.8693 300.93 70.5449 301.704 71.2977C302.661 72.2338 303.811 72.8128 305.049 72.9769C305.213 72.9962 309.341 73.0059 314.233 72.9962L323.127 72.9866L323.756 72.7549C327.207 71.5293 328.812 68.1901 327.594 64.7544C327.024 63.1427 325.274 61.5985 323.466 61.116ZM319.251 47.0257C320.101 46.4949 320.875 46.2729 321.919 46.2633C323.369 46.2633 324.375 46.6589 325.448 47.6723C326.618 48.7532 327.207 50.4614 326.956 51.9862C326.83 52.739 326.434 53.733 326.076 54.1963C325.825 54.5148 320.256 60.1026 320.179 60.1026C320.15 60.1026 318.555 58.5295 316.621 56.5994C314.697 54.6788 313.121 53.0671 313.121 53.0285C313.121 52.8741 318.787 47.3249 319.251 47.0257ZM289.716 32.2598C289.204 31.9799 289.146 31.7676 289.146 30.1463V28.6504L289.484 28.303L289.832 27.9652H296.889C304.72 27.9652 304.391 27.9362 304.672 28.5925C304.769 28.8241 304.807 29.3163 304.807 30.1752C304.807 31.7097 304.682 32.0765 304.082 32.3081C303.918 32.366 301.307 32.4046 296.899 32.4046C291.108 32.3949 289.929 32.3756 289.716 32.2598ZM285.994 42.6828C286.052 42.4126 286.458 41.959 288.198 40.2508C289.368 39.0926 290.46 37.9538 290.605 37.7222L290.886 37.2879V35.3288V33.3697H296.918H302.961L302.99 35.3288C303.009 36.9115 303.048 37.3362 303.173 37.5678C303.27 37.7222 304.362 38.8707 305.619 40.1253C307.882 42.374 307.901 42.3933 307.901 42.8082V43.2136H296.986C289.368 43.2136 286.042 43.1846 286.004 43.1074C285.965 43.0495 285.965 42.8565 285.994 42.6828ZM285.955 52.5749V44.1787H296.928H307.901V50.4614V56.7538L306.721 57.9698C305.571 59.1472 305.194 59.6876 304.817 60.7106L304.711 60.9712H295.333H285.955V52.5749ZM299.78 67.1092V67.7268L295.12 67.7172C291.62 67.7075 290.286 67.6786 289.793 67.5821C288.111 67.2443 286.69 65.98 286.197 64.378C286.11 64.1271 286.023 63.4708 285.984 62.9303L285.926 61.9363H294.153H302.381L301.636 62.6891C300.437 63.8858 299.78 65.4492 299.78 67.1092ZM313.411 66.9548V71.9732L309.187 71.9636C306.045 71.9539 304.836 71.925 304.498 71.8285C303.328 71.51 302.013 70.458 301.433 69.3771C300.66 67.9198 300.64 66.0862 301.385 64.6096C301.762 63.8858 302.874 62.8145 303.647 62.4478C304.672 61.9653 304.972 61.9363 309.351 61.9363H313.411V66.9548ZM312.638 60.9712H305.851L305.909 60.7299C306.054 60.1412 306.818 59.263 309.448 56.6283C310.985 55.0938 312.28 53.8296 312.329 53.8296C312.425 53.8296 319.338 60.7203 319.386 60.8651C319.415 60.9423 317.414 60.9712 312.638 60.9712ZM323.243 71.8381C322.857 71.9443 321.803 71.9732 318.584 71.9732H314.427L314.446 66.9837L314.475 61.9846L318.458 61.9556C322.876 61.9267 323.098 61.946 324.22 62.4864C325.631 63.1716 326.695 64.6578 326.956 66.2888C327.343 68.6919 325.67 71.1915 323.243 71.8381Z" stroke="#005778" stroke-width="0.6" mask="url(#path-4-outside-1_1060_125)"/>
<path d="M324.012 69.106L324.011 69.1065C323.676 69.4163 323.385 69.6094 323.032 69.7325C322.675 69.8569 322.244 69.9135 321.623 69.9338C321.335 69.942 321.05 69.9544 320.822 69.9678C320.603 69.9806 320.421 69.9951 320.347 70.0099C320.068 70.0572 319.885 70.2507 319.854 70.4802C319.824 70.7126 319.955 70.9445 320.22 71.0494L320.221 71.0498C320.316 71.0862 320.454 71.1096 320.608 71.1249C320.765 71.1405 320.954 71.1488 321.155 71.1499C321.559 71.152 322.025 71.125 322.428 71.0665L322.428 71.0665C324.496 70.7655 326.064 69.3679 326.147 67.6617L326.147 67.6617L326.147 67.66C326.152 67.5262 326.151 67.4095 326.137 67.3105C326.123 67.2116 326.096 67.1191 326.04 67.0425C325.921 66.8799 325.724 66.85 325.514 66.85C325.311 66.85 325.14 66.9321 325.018 67.0938C324.902 67.2476 324.838 67.4629 324.812 67.7208C324.785 67.9859 324.721 68.2045 324.599 68.4176C324.477 68.633 324.292 68.8499 324.012 69.106Z" fill="#005778" stroke="#005778" stroke-width="0.3"/>
<path d="M324.602 54.3516L324.602 54.3516C325.829 53.131 326.316 51.8818 326.101 50.4114L326.101 50.4113C326.049 50.0586 325.91 49.6409 325.732 49.2505C325.554 48.8603 325.33 48.4859 325.101 48.2231L325.101 48.2231L325.1 48.2216C324.92 48.0204 324.7 47.8906 324.482 47.858C324.259 47.8247 324.04 47.8951 323.894 48.0879L323.894 48.0881C323.845 48.1525 323.8 48.2203 323.773 48.2948C323.745 48.3754 323.741 48.457 323.764 48.5445C323.785 48.6265 323.829 48.7094 323.886 48.7985C323.944 48.8884 324.023 48.9937 324.122 49.1207L324.122 49.1207L324.123 49.1221C324.605 49.728 324.818 50.3261 324.818 51.035C324.818 51.5066 324.752 51.8673 324.581 52.2201C324.408 52.5765 324.124 52.9352 323.671 53.3946C323.432 53.636 323.236 53.8555 323.097 54.0336C323.028 54.1224 322.971 54.2033 322.93 54.2732C322.893 54.3366 322.856 54.4117 322.85 54.4826L322.85 54.4826V54.4936C322.85 54.5853 322.884 54.6715 322.928 54.7435C322.973 54.8168 323.033 54.8847 323.1 54.9426C323.228 55.054 323.407 55.15 323.581 55.15C323.629 55.15 323.673 55.1299 323.695 55.1188C323.724 55.1046 323.755 55.0856 323.786 55.0644C323.85 55.0218 323.927 54.9624 324.012 54.8923C324.182 54.7514 324.392 54.5595 324.602 54.3516Z" fill="#005778" stroke="#005778" stroke-width="0.3"/>
<path d="M298.484 59.0364L298.484 59.0366L298.49 59.0334C298.552 58.9992 298.614 58.9522 298.657 58.8571C298.694 58.7756 298.713 58.6667 298.725 58.5191C298.75 58.2204 298.753 57.6869 298.753 56.7037V54.7528H300.684C301.427 54.7528 301.958 54.7455 302.315 54.7269C302.493 54.7177 302.633 54.7055 302.735 54.6891C302.786 54.6809 302.832 54.6711 302.87 54.6585C302.905 54.6473 302.952 54.6283 302.989 54.5916C303.024 54.5562 303.042 54.5108 303.053 54.4797C303.064 54.444 303.074 54.4019 303.082 54.3555C303.098 54.2624 303.11 54.1364 303.12 53.9769C303.14 53.657 303.15 53.1866 303.15 52.541C303.15 51.7752 303.143 51.3048 303.119 51.0095C303.096 50.7269 303.057 50.5603 302.952 50.4533C302.895 50.3936 302.823 50.3561 302.729 50.3305C302.638 50.3055 302.517 50.2894 302.356 50.2783C302.032 50.2558 301.508 50.251 300.645 50.251H298.753V48.3392C298.753 47.4133 298.748 46.8862 298.724 46.5762C298.701 46.2732 298.658 46.1259 298.53 46.0235L298.53 46.0235L298.528 46.0217C298.467 45.9749 298.383 45.9496 298.294 45.9322C298.201 45.9138 298.079 45.9001 297.927 45.8896C297.621 45.8685 297.172 45.8587 296.532 45.8538V45.8538H296.531C296.365 45.8538 296.211 45.8527 296.068 45.8517C295.718 45.8492 295.435 45.8472 295.211 45.8627C294.898 45.8844 294.65 45.9418 294.486 46.1265C294.326 46.306 294.277 46.5733 294.258 46.9191C294.245 47.1667 294.247 47.4797 294.249 47.8679C294.25 48.031 294.251 48.2074 294.251 48.3978V50.251H292.398C292.207 50.251 292.03 50.25 291.866 50.249C291.479 50.2468 291.166 50.245 290.919 50.2583C290.573 50.2769 290.306 50.3254 290.127 50.4841C289.942 50.6475 289.884 50.8955 289.863 51.2068C289.847 51.4294 289.849 51.7116 289.852 52.0598C289.853 52.2025 289.854 52.3562 289.854 52.5214C289.854 53.2521 289.859 53.6966 289.882 53.9779C289.906 54.257 289.95 54.412 290.06 54.5295C290.111 54.5838 290.171 54.6291 290.265 54.6619C290.351 54.6922 290.463 54.7105 290.616 54.723C290.923 54.748 291.443 54.7528 292.369 54.7528H294.251V56.6451C294.251 57.5081 294.256 58.0318 294.278 58.3557C294.289 58.5172 294.305 58.6378 294.331 58.7294C294.356 58.8227 294.394 58.8954 294.453 58.9517C294.56 59.0565 294.722 59.0961 294.996 59.1189C295.28 59.1428 295.731 59.15 296.463 59.15C296.977 59.15 297.439 59.1402 297.788 59.1229C297.962 59.1143 298.11 59.1038 298.223 59.0914C298.279 59.0852 298.329 59.0784 298.369 59.0707C298.406 59.0639 298.449 59.0539 298.484 59.0364ZM297.476 55.961V57.8728H296.551H295.626V55.9904C295.626 55.0647 295.621 54.5444 295.596 54.2376C295.584 54.0844 295.565 53.9728 295.535 53.8864C295.502 53.7928 295.457 53.7332 295.403 53.6823C295.283 53.5701 295.119 53.5274 294.805 53.5041C294.486 53.4804 293.969 53.4756 293.101 53.4756H291.229V52.5508V51.6259H293.062C293.255 51.6259 293.434 51.6271 293.6 51.6282C293.991 51.6308 294.308 51.6329 294.558 51.6175C294.909 51.5959 295.181 51.5387 295.362 51.3551C295.542 51.1721 295.597 50.8967 295.618 50.5407C295.633 50.2886 295.631 49.9701 295.628 49.576C295.627 49.406 295.626 49.222 295.626 49.0232V47.1827L296.519 47.1993L296.519 47.1993L297.429 47.2162L297.456 49.1029C297.456 49.103 297.456 49.1031 297.456 49.1032C297.466 50.0663 297.473 50.5858 297.503 50.8839C297.518 51.0333 297.54 51.1422 297.579 51.2284C297.621 51.3212 297.677 51.3762 297.734 51.4241L297.734 51.4241L297.738 51.4275C297.867 51.5294 298.017 51.5736 298.333 51.5974C298.647 51.6211 299.157 51.6259 300.029 51.6259H301.873V52.5508V53.4756H299.961C299.136 53.4756 298.611 53.4829 298.277 53.504C298.11 53.5146 297.985 53.5289 297.891 53.5491C297.801 53.5687 297.72 53.5978 297.661 53.6519L297.661 53.6514L297.652 53.6611C297.598 53.7201 297.569 53.8007 297.549 53.8915C297.529 53.9852 297.515 54.1104 297.504 54.277C297.483 54.611 297.476 55.136 297.476 55.961Z" fill="#005778" stroke="#005778" stroke-width="0.3"/>
</svg>
