<svg width="18" height="22" viewBox="0 0 18 22" fill="none" xmlns="http://www.w3.org/2000/svg">
<path d="M15.0657 20.9987H2.93357C2.31864 20.9979 1.72931 20.7533 1.29446 20.3185C0.859625 19.8836 0.61506 19.294 0.614258 18.6793V3.31931C0.615041 2.70438 0.859605 2.11506 1.29446 1.68021C1.7293 1.24537 2.31864 1.00081 2.93357 1H11.6292C12.2102 0.99896 12.768 1.22629 13.183 1.63269L16.7554 5.12939C17.1592 5.52168 17.3873 6.06016 17.3884 6.62289V18.6795C17.3876 19.2949 17.1425 19.8848 16.7071 20.3196C16.2715 20.7545 15.6812 20.9988 15.0657 20.9988L15.0657 20.9987ZM2.93357 1.94962C2.57025 1.94962 2.22183 2.09396 1.96471 2.35078C1.70788 2.60788 1.56354 2.95632 1.56354 3.31964V18.6797C1.56354 19.043 1.70788 19.3914 1.96471 19.6485C2.22181 19.9054 2.57025 20.0497 2.93357 20.0497H15.0657C15.4292 20.0497 15.7777 19.9054 16.0345 19.6485C16.2916 19.3914 16.4359 19.043 16.4359 18.6797V6.6231C16.4349 6.31642 16.312 6.02279 16.0943 5.80666L12.5216 2.32586C12.2838 2.09174 11.9631 1.96097 11.6293 1.96202L2.93357 1.94962Z" fill="#767676" stroke="#767676" stroke-width="0.5"/>
<path d="M15.6001 7.00331H13.2933C12.7823 6.98765 12.2981 6.76997 11.9471 6.3983C11.596 6.02636 11.4065 5.53047 11.4201 5.01938V2.69352C11.4201 2.43121 11.6326 2.21875 11.8949 2.21875C12.1569 2.21875 12.3694 2.43121 12.3694 2.69352V5.01938C12.3564 5.27856 12.4461 5.53252 12.6189 5.72618C12.792 5.91984 13.0342 6.03782 13.2934 6.054H15.6001C15.8624 6.054 16.0749 6.26646 16.0749 6.52877C16.0749 6.79082 15.8624 7.00328 15.6001 7.00328L15.6001 7.00331Z" fill="#767676" stroke="#767676" stroke-width="0.5"/>
<path d="M8.99841 4.67145H3.93545C3.6734 4.67145 3.46094 4.45899 3.46094 4.19668C3.46094 3.93463 3.6734 3.72217 3.93545 3.72217H8.99841C9.26072 3.72217 9.47318 3.93463 9.47318 4.19668C9.47318 4.45899 9.26072 4.67145 8.99841 4.67145Z" fill="#767676" stroke="#767676" stroke-width="0.5"/>
<path d="M8.99841 6.56892H3.93545C3.6734 6.56892 3.46094 6.35645 3.46094 6.0944C3.46094 5.83209 3.6734 5.61963 3.93545 5.61963H8.99841C9.26072 5.61963 9.47318 5.83209 9.47318 6.0944C9.47318 6.35645 9.26072 6.56892 8.99841 6.56892Z" fill="#767676" stroke="#767676" stroke-width="0.5"/>
<path d="M14.0616 10.0499H7.41667C7.15435 10.0499 6.94189 9.83741 6.94189 9.57536C6.94189 9.31305 7.15435 9.10059 7.41667 9.10059H14.0616C14.3239 9.10059 14.5364 9.31305 14.5364 9.57536C14.5364 9.83741 14.3239 10.0499 14.0616 10.0499Z" fill="#767676" stroke="#767676" stroke-width="0.5"/>
<path d="M5.20131 10.0499H3.93545C3.6734 10.0499 3.46094 9.83741 3.46094 9.57536C3.46094 9.31305 3.6734 9.10059 3.93545 9.10059H5.20131C5.46336 9.10059 5.67608 9.31305 5.67608 9.57536C5.67608 9.83741 5.46336 10.0499 5.20131 10.0499Z" fill="#767676" stroke="#767676" stroke-width="0.5"/>
<path d="M14.0616 12.5826H7.41667C7.15435 12.5826 6.94189 12.3701 6.94189 12.1081C6.94189 11.8458 7.15435 11.6333 7.41667 11.6333H14.0616C14.3239 11.6333 14.5364 11.8458 14.5364 12.1081C14.5364 12.3701 14.3239 12.5826 14.0616 12.5826Z" fill="#767676" stroke="#767676" stroke-width="0.5"/>
<path d="M5.20131 12.5826H3.93545C3.6734 12.5826 3.46094 12.3701 3.46094 12.1081C3.46094 11.8458 3.6734 11.6333 3.93545 11.6333H5.20131C5.46336 11.6333 5.67608 11.8458 5.67608 12.1081C5.67608 12.3701 5.46336 12.5826 5.20131 12.5826Z" fill="#767676" stroke="#767676" stroke-width="0.5"/>
<path d="M14.0616 15.4295H7.41667C7.15435 15.4295 6.94189 15.2168 6.94189 14.9548C6.94189 14.6927 7.15435 14.48 7.41667 14.48H14.0616C14.3239 14.48 14.5364 14.6927 14.5364 14.9548C14.5364 15.2168 14.3239 15.4295 14.0616 15.4295Z" fill="#767676" stroke="#767676" stroke-width="0.5"/>
<path d="M5.20131 15.4295H3.93545C3.6734 15.4295 3.46094 15.2168 3.46094 14.9548C3.46094 14.6927 3.6734 14.48 3.93545 14.48H5.20131C5.46336 14.48 5.67608 14.6927 5.67608 14.9548C5.67608 15.2168 5.46336 15.4295 5.20131 15.4295Z" fill="#767676" stroke="#767676" stroke-width="0.5"/>
<path d="M14.0616 17.961H7.41667C7.15435 17.961 6.94189 17.7485 6.94189 17.4865C6.94189 17.2244 7.15435 17.0117 7.41667 17.0117H14.0616C14.3239 17.0117 14.5364 17.2244 14.5364 17.4865C14.5364 17.7485 14.3239 17.961 14.0616 17.961Z" fill="#767676" stroke="#767676" stroke-width="0.5"/>
<path d="M5.20131 17.961H3.93545C3.6734 17.961 3.46094 17.7485 3.46094 17.4865C3.46094 17.2244 3.6734 17.0117 3.93545 17.0117H5.20131C5.46336 17.0117 5.67608 17.2244 5.67608 17.4865C5.67608 17.7485 5.46336 17.961 5.20131 17.961Z" fill="#767676" stroke="#767676" stroke-width="0.5"/>
</svg>
