<svg width="70" height="70" viewBox="0 0 70 70" fill="none" xmlns="http://www.w3.org/2000/svg">
<path d="M23.7 15.3996C23.7 19.6996 27.2 22.6996 32.4 27.1996L32.7 27.4996C34 28.5996 35.9 28.5996 37.2999 27.4996L37.5999 27.1996C42.8999 22.6996 46.2999 19.6996 46.2999 15.3996C46.2999 11.4996 43.7 8.59961 40.2 8.59961C38.2 8.59961 36.3 9.39961 35 10.8996C33.7 9.39961 31.7999 8.59961 29.7999 8.59961C26.2999 8.59961 23.7 11.4996 23.7 15.3996ZM25.4 15.3996C25.4 12.4996 27.2999 10.2996 29.7999 10.2996C31.5999 10.2996 33.2999 11.1996 34.2999 12.6996C34.4999 12.9996 34.7 13.0996 35 13.0996C35.3 13.0996 35.6 12.8996 35.7 12.6996C36.7 11.1996 38.4 10.2996 40.2 10.2996C42.7 10.2996 44.5999 12.4996 44.5999 15.3996C44.5999 18.8996 41.5 21.4996 36.5 25.8996L36.2 26.1996C35.5 26.7996 34.6 26.7996 33.9 26.1996L33.5999 25.8996C28.4999 21.4996 25.4 18.8996 25.4 15.3996Z" fill="#E67025"/>
<path d="M55.7001 34.2004H48.7001C48.1001 34.2004 47.5001 34.6004 47.3001 35.2004C45.5001 34.5004 43.6001 34.2004 41.7001 34.2004C39.1001 34.1004 36.6001 34.7004 34.3001 35.9004H29.5001C28.2001 35.9004 27.0001 36.3004 25.9001 37.0004L16.1001 29.1004C13.7001 27.2004 10.3001 27.4004 8.2001 29.5004C6.8001 30.9004 6.7001 33.2004 8.0001 34.7004L21.1001 49.8004C22.7001 51.6004 25.0001 52.7004 27.5001 52.7004H47.2001V53.0004C47.2001 53.8004 47.9001 54.5004 48.7001 54.5004H55.7001C56.6001 54.5004 57.2001 53.8004 57.2001 53.0004V35.7004C57.2001 34.9004 56.5001 34.2004 55.7001 34.2004ZM54.3001 37.0004V51.5004H50.3001V37.0004H54.3001ZM22.9001 42.6004C22.9001 44.3004 24.3001 45.8004 26.1001 45.8004H36.7001C37.5001 45.8004 38.2001 45.1004 38.2001 44.3004C38.2001 43.5004 37.5001 42.8004 36.7001 42.8004H26.2001C26.0001 42.8004 25.9001 42.6004 25.9001 42.5004C26.0001 40.4004 27.6001 38.7004 29.7001 38.7004H34.9001C35.2001 38.7004 35.5001 38.6004 35.7001 38.5004C37.6001 37.5004 39.7001 36.9004 41.9001 37.0004C43.8001 37.0004 45.7001 37.4004 47.4001 38.2004V49.7004H27.6001C26.0001 49.7004 24.4001 49.0004 23.4001 47.8004L10.3001 32.7004C10.0001 32.4004 10.0001 31.8004 10.3001 31.5004C11.4001 30.5004 13.1001 30.4004 14.3001 31.4004L23.9001 39.1004C23.3001 40.1004 22.9001 41.4004 22.9001 42.6004Z" fill="#484848"/>
<path d="M35 0C15.7 0 0 15.7 0 35C0 54.3 15.7 70 35 70C54.3 70 70 54.3 70 35C70 15.7 54.3 0 35 0ZM35 67C17.4 67 3 52.7 3 35C3 17.3 17.3 3 35 3C52.7 3 67 17.4 67 35C67 52.6 52.6 67 35 67Z" fill="#484848"/>
</svg>
