<svg width="75" height="70" viewBox="0 0 75 70" fill="none" xmlns="http://www.w3.org/2000/svg">
<g clip-path="url(#clip0_281_391)">
<path d="M37.2 54.1998C54.8 54.1998 69.4 41.1998 73.5 37.1998C74.1 36.5998 74.4 35.7998 74.4 34.9998C74.4 34.1998 74.1 33.3998 73.5 32.7998C69.4 28.7998 54.8 15.7998 37.2 15.7998C19.6 15.7998 5 28.7998 0.9 32.7998C0.3 33.3998 0 34.1998 0 34.9998C0 35.7998 0.3 36.5998 0.9 37.1998C5 41.1998 19.6 54.1998 37.2 54.1998ZM37.2 18.7998C53.7 18.7998 67.5 31.1998 71.4 34.9998V35.0998C67.5 38.8998 53.7 51.2998 37.2 51.2998C20.7 51.1998 6.9 38.7998 3 34.9998C6.9 31.1998 20.7 18.7998 37.2 18.7998Z" fill="#484848"/>
<path d="M37.1 21.9004C29.9 21.9004 24 27.8004 24 35.0004C24 42.2004 29.9 48.0004 37.1 48.0004C44.4 48.1004 50.2 42.2004 50.2 35.0004C50.2 27.8004 44.3 21.9004 37.1 21.9004ZM37.2 45.0004C31.6 45.1004 27.1 40.6004 27.1 35.0004C27.1 29.4004 31.6 24.9004 37.2 24.9004C42.8 24.9004 47.3 29.4004 47.3 35.0004C47.3 40.5004 42.8 45.0004 37.2 45.0004Z" fill="#F58220"/>
<path d="M44.3001 34.9998C44.3001 31.0998 41.1001 27.7998 37.2001 27.7998C33.3001 27.7998 30.1001 30.9998 30.1001 34.9998C30.1001 38.8998 33.3001 42.0998 37.2001 42.0998C41.1001 42.0998 44.3001 38.8998 44.3001 34.9998ZM33.0001 34.9998C33.0001 32.6998 34.9001 30.7998 37.1001 30.7998C39.4001 30.7998 41.2001 32.6998 41.2001 34.9998C41.2001 37.2998 39.3001 39.0998 37.1001 39.0998C34.9001 39.0998 33.0001 37.2998 33.0001 34.9998Z" fill="#484848"/>
<path d="M24.4001 5.40002C23.8001 4.80002 22.8001 4.70002 22.2001 5.20002C21.6001 5.70002 21.5001 6.60002 22.0001 7.30002L25.7001 11.9C26.2001 12.6 27.2001 12.6 27.8001 12.1C28.4001 11.6 28.5001 10.7 28.0001 10L24.4001 5.40002Z" fill="#484848"/>
<path d="M37.2 0C36.4 0 35.7 0.7 35.7 1.5V7.4C35.7 8.2 36.4 8.9 37.2 8.9C38 8.9 38.7 8.2 38.7 7.4V1.5C38.7 0.7 38 0 37.2 0Z" fill="#484848"/>
<path d="M52.2 5.30022C51.6 4.70022 50.6 4.80022 50.1 5.50022L46.4 10.1002C45.9 10.7002 46 11.7002 46.6 12.2002C47.2 12.7002 48.2 12.6002 48.7 12.0002L52.4 7.40022C52.9 6.80022 52.8 5.80022 52.2 5.30022Z" fill="#484848"/>
<path d="M25.6 58.0998L21.9 62.6998C21.4 63.2998 21.5 64.2998 22.1 64.7998C22.8 65.2998 23.7 65.1998 24.2 64.5998L27.8 59.9998C28.3 59.3998 28.2 58.3998 27.6 57.8998C27 57.2998 26.1 57.3998 25.6 58.0998Z" fill="#484848"/>
<path d="M35.7 62.7002V68.6002C35.7 69.4002 36.4 70.1002 37.2 70.1002C38 70.1002 38.7 69.4002 38.7 68.6002V62.7002C38.7 61.9002 38 61.2002 37.2 61.2002C36.4 61.2002 35.7 61.8002 35.7 62.7002Z" fill="#484848"/>
<path d="M46.7001 57.7996C46.1001 58.2996 46.0001 59.1996 46.5001 59.8996L50.2001 64.4996C50.7001 65.1996 51.7001 65.1996 52.3001 64.6996C52.9001 64.1996 53.0001 63.2996 52.5001 62.5996L48.8001 57.9996C48.3001 57.3996 47.3001 57.2996 46.7001 57.7996Z" fill="#484848"/>
</g>
<defs>
<clipPath id="clip0_281_391">
<rect width="74.4" height="70" fill="white"/>
</clipPath>
</defs>
</svg>
